  0
SECTION
  2
HEADER
  9
$ACADVER
  1
AC1015
  9
$ACADMAINTVER
 70
     6
  9
$DWGCODEPAGE
  3
ASCII
  9
$INSBASE
 10
0.0
 20
0.0
 30
0.0
  9
$EXTMIN
 10
0.0
 20
10.0
 30
0.0
  9
$EXTMAX
 10
204.0
 20
287.0
 30
0.0
  9
$LIMMIN
 10
0.0
 20
0.0
  9
$LIMMAX
 10
210.0
 20
297.0
  9
$ORTHOMODE
 70
     0
  9
$REGENMODE
 70
     1
  9
$FILLMODE
 70
     1
  9
$QTEXTMODE
 70
     0
  9
$MIRRTEXT
 70
     0
  9
$LTSCALE
 40
1.0
  9
$ATTMODE
 70
     1
  9
$TEXTSIZE
 40
0.2
  9
$TRACEWID
 40
0.05
  9
$TEXTSTYLE
  7
Standard
  9
$CLAYER
  8
0
  9
$CELTYPE
  6
ByLayer
  9
$CECOLOR
 62
   178
  9
$CELTSCALE
 40
1.0
  9
$DISPSILH
 70
     0
  9
$DIMSCALE
 40
1.0
  9
$DIMASZ
 40
1.799999999999999
  9
$DIMEXO
 40
0.0625
  9
$DIMDLI
 40
0.38
  9
$DIMRND
 40
0.0
  9
$DIMDLE
 40
0.0
  9
$DIMEXE
 40
0.18
  9
$DIMTP
 40
0.0
  9
$DIMTM
 40
0.0
  9
$DIMTXT
 40
0.25
  9
$DIMCEN
 40
0.09
  9
$DIMTSZ
 40
0.0
  9
$DIMTOL
 70
     0
  9
$DIMLIM
 70
     0
  9
$DIMTIH
 70
     1
  9
$DIMTOH
 70
     1
  9
$DIMSE1
 70
     0
  9
$DIMSE2
 70
     0
  9
$DIMTAD
 70
     0
  9
$DIMZIN
 70
     0
  9
$DIMBLK
  1

  9
$DIMASO
 70
     1
  9
$DIMSHO
 70
     1
  9
$DIMPOST
  1

  9
$DIMAPOST
  1

  9
$DIMALT
 70
     0
  9
$DIMALTD
 70
     2
  9
$DIMALTF
 40
25.4
  9
$DIMLFAC
 40
1.0
  9
$DIMTOFL
 70
     0
  9
$DIMTVP
 40
0.0
  9
$DIMTIX
 70
     0
  9
$DIMSOXD
 70
     0
  9
$DIMSAH
 70
     0
  9
$DIMBLK1
  1

  9
$DIMBLK2
  1

  9
$DIMSTYLE
  2
Standard
  9
$DIMCLRD
 70
   178
  9
$DIMCLRE
 70
   178
  9
$DIMCLRT
 70
   178
  9
$DIMTFAC
 40
1.0
  9
$DIMGAP
 40
0.09
  9
$DIMJUST
 70
     0
  9
$DIMSD1
 70
     0
  9
$DIMSD2
 70
     0
  9
$DIMTOLJ
 70
     1
  9
$DIMTZIN
 70
     0
  9
$DIMALTZ
 70
     0
  9
$DIMALTTZ
 70
     0
  9
$DIMUPT
 70
     0
  9
$DIMDEC
 70
     4
  9
$DIMTDEC
 70
     4
  9
$DIMALTU
 70
     2
  9
$DIMALTTD
 70
     2
  9
$DIMTXSTY
  7
Standard
  9
$DIMAUNIT
 70
     0
  9
$DIMADEC
 70
     0
  9
$DIMALTRND
 40
0.0
  9
$DIMAZIN
 70
     0
  9
$DIMDSEP
 70
    46
  9
$DIMATFIT
 70
     3
  9
$DIMFRAC
 70
     0
  9
$DIMLDRBLK
  1

  9
$DIMLUNIT
 70
     2
  9
$DIMLWD
 70
    -2
  9
$DIMLWE
 70
    -2
  9
$DIMTMOVE
 70
     0
  9
$LUNITS
 70
     2
  9
$LUPREC
 70
     4
  9
$SKETCHINC
 40
0.1
  9
$FILLETRAD
 40
0.0
  9
$AUNITS
 70
     0
  9
$AUPREC
 70
     0
  9
$MENU
  1
.
  9
$ELEVATION
 40
0.0
  9
$PELEVATION
 40
0.0
  9
$THICKNESS
 40
0.0
  9
$LIMCHECK
 70
     0
  9
$CHAMFERA
 40
0.0
  9
$CHAMFERB
 40
0.0
  9
$CHAMFERC
 40
0.0
  9
$CHAMFERD
 40
0.0
  9
$SKPOLY
 70
     0
  9
$TDCREATE
 40
2456512.854247673
  9
$TDUCREATE
 40
2456512.812581019
  9
$TDUPDATE
 40
2456512.854247673
  9
$TDUUPDATE
 40
2456512.812581019
  9
$TDINDWG
 40
0.0000000116
  9
$TDUSRTIMER
 40
0.0000000116
  9
$USRTIMER
 70
     1
  9
$ANGBASE
 50
0.0
  9
$ANGDIR
 70
     0
  9
$PDMODE
 70
     0
  9
$PDSIZE
 40
0.0
  9
$PLINEWID
 40
0.0
  9
$SPLFRAME
 70
     0
  9
$SPLINETYPE
 70
     6
  9
$SPLINESEGS
 70
     8
  9
$HANDSEED
  5
537
  9
$SURFTAB1
 70
     6
  9
$SURFTAB2
 70
     6
  9
$SURFTYPE
 70
     6
  9
$SURFU
 70
     6
  9
$SURFV
 70
     6
  9
$UCSBASE
  2

  9
$UCSNAME
  2

  9
$UCSORG
 10
0.0
 20
0.0
 30
0.0
  9
$UCSXDIR
 10
1.0
 20
0.0
 30
0.0
  9
$UCSYDIR
 10
0.0
 20
1.0
 30
0.0
  9
$UCSORTHOREF
  2

  9
$UCSORTHOVIEW
 70
     0
  9
$UCSORGTOP
 10
0.0
 20
0.0
 30
0.0
  9
$UCSORGBOTTOM
 10
0.0
 20
0.0
 30
0.0
  9
$UCSORGLEFT
 10
0.0
 20
0.0
 30
0.0
  9
$UCSORGRIGHT
 10
0.0
 20
0.0
 30
0.0
  9
$UCSORGFRONT
 10
0.0
 20
0.0
 30
0.0
  9
$UCSORGBACK
 10
0.0
 20
0.0
 30
0.0
  9
$PUCSBASE
  2

  9
$PUCSNAME
  2

  9
$PUCSORG
 10
0.0
 20
0.0
 30
0.0
  9
$PUCSXDIR
 10
1.0
 20
0.0
 30
0.0
  9
$PUCSYDIR
 10
0.0
 20
1.0
 30
0.0
  9
$PUCSORTHOREF
  2

  9
$PUCSORTHOVIEW
 70
     0
  9
$PUCSORGTOP
 10
0.0
 20
0.0
 30
0.0
  9
$PUCSORGBOTTOM
 10
0.0
 20
0.0
 30
0.0
  9
$PUCSORGLEFT
 10
0.0
 20
0.0
 30
0.0
  9
$PUCSORGRIGHT
 10
0.0
 20
0.0
 30
0.0
  9
$PUCSORGFRONT
 10
0.0
 20
0.0
 30
0.0
  9
$PUCSORGBACK
 10
0.0
 20
0.0
 30
0.0
  9
$USERI1
 70
     0
  9
$USERI2
 70
     0
  9
$USERI3
 70
     0
  9
$USERI4
 70
     0
  9
$USERI5
 70
     0
  9
$USERR1
 40
0.0
  9
$USERR2
 40
0.0
  9
$USERR3
 40
0.0
  9
$USERR4
 40
0.0
  9
$USERR5
 40
0.0
  9
$WORLDVIEW
 70
     1
  9
$SHADEDGE
 70
     3
  9
$SHADEDIF
 70
    70
  9
$TILEMODE
 70
     1
  9
$MAXACTVP
 70
    64
  9
$PINSBASE
 10
0.0
 20
0.0
 30
0.0
  9
$PLIMCHECK
 70
     0
  9
$PEXTMIN
 10
0.0
 20
0.0
 30
0.0
  9
$PEXTMAX
 10
210.0
 20
297.0
 30
0.0
  9
$PLIMMIN
 10
0.0
 20
0.0
  9
$PLIMMAX
 10
210.0
 20
297.0
  9
$UNITMODE
 70
     0
  9
$VISRETAIN
 70
     1
  9
$PLINEGEN
 70
     0
  9
$PSLTSCALE
 70
     1
  9
$TREEDEPTH
 70
  3020
  9
$CMLSTYLE
  2
Standard
  9
$CMLJUST
 70
     0
  9
$CMLSCALE
 40
1.0
  9
$PROXYGRAPHICS
 70
     1
  9
$MEASUREMENT
 70
     1
  9
$CELWEIGHT
370
    -1
  9
$ENDCAPS
280
     0
  9
$JOINSTYLE
280
     0
  9
$LWDISPLAY
290
     0
  9
$INSUNITS
 70
     4
  9
$HYPERLINKBASE
  1

  9
$STYLESHEET
  1

  9
$XEDIT
290
     1
  9
$CEPSNTYPE
380
     0
  9
$PSTYLEMODE
290
     1
  9
$FINGERPRINTGUID
  2
{6FAE9F2B-6F91-9996-8051-456E639E0AE7}
  9
$VERSIONGUID
  2
{FAEB1C32-E019-11D5-929B-00C0DF256EC4}
  9
$EXTNAMES
290
     1
  9
$PSVPSCALE
 40
0.0
  9
$OLESTARTUP
290
     0
  0
ENDSEC
  0
SECTION
  2
CLASSES
  0
CLASS
  1
ACDBDICTIONARYWDFLT
  2
AcDbDictionaryWithDefault
  3
ObjectDBX Classes
 90
        0
280
     0
281
     0
  0
CLASS
  1
VISUALSTYLE
  2
AcDbVisualStyle
  3
ObjectDBX Classes
 90
     4095
280
     0
281
     0
  0
CLASS
  1
MATERIAL
  2
AcDbMaterial
  3
ObjectDBX Classes
 90
     1153
280
     0
281
     0
  0
CLASS
  1
DICTIONARYVAR
  2
AcDbDictionaryVar
  3
ObjectDBX Classes
 90
        0
280
     0
281
     0
  0
CLASS
  1
ACDBPLACEHOLDER
  2
AcDbPlaceHolder
  3
ObjectDBX Classes
 90
        0
280
     0
281
     0
  0
CLASS
  1
LAYOUT
  2
AcDbLayout
  3
ObjectDBX Classes
 90
        0
280
     0
281
     0
  0
ENDSEC
  0
SECTION
  2
TABLES
  0
TABLE
  2
VPORT
  5
472
330
0
100
AcDbSymbolTable
 70
     1
  0
VPORT
  5
492
330
472
100
AcDbSymbolTableRecord
100
AcDbViewportTableRecord
  2
*Active
 70
     0
 10
0.0
 20
0.0
 11
1.0
 21
1.0
 12
10.42990654205607
 22
4.5
 13
0.0
 23
0.0
 14
0.5
 24
0.5
 15
0.5
 25
0.5
 16
0.0
 26
0.0
 36
1.0
 17
0.0
 27
0.0
 37
0.0
 40
9.0
 41
1.972972972850329
 42
50.0
 43
0.0
 44
0.0
 50
0.0
 51
0.0
 71
     0
 72
   100
 73
     1
 74
     3
 75
     0
 76
     0
 77
     0
 78
     0
281
     0
 65
     1
110
0.0
120
0.0
130
0.0
111
1.0
121
0.0
131
0.0
112
0.0
122
1.0
132
0.0
 79
     0
146
0.0
  0
ENDTAB
  0
TABLE
  2
LTYPE
  5
46F
330
0
100
AcDbSymbolTable
 70
    19
  0
LTYPE
  5
47D
330
46F
100
AcDbSymbolTableRecord
100
AcDbLinetypeTableRecord
  2
ByBlock
 70
     0
  3

 72
    65
 73
     0
 40
0.0
  0
LTYPE
  5
47E
330
46F
100
AcDbSymbolTableRecord
100
AcDbLinetypeTableRecord
  2
ByLayer
 70
     0
  3

 72
    65
 73
     0
 40
0.0
  0
LTYPE
  5
47F
330
46F
100
AcDbSymbolTableRecord
100
AcDbLinetypeTableRecord
  2
Continuous
 70
     0
  3
Solid line
 72
    65
 73
     0
 40
0.0
  0
LTYPE
  5
4C0
330
46F
100
AcDbSymbolTableRecord
100
AcDbLinetypeTableRecord
  2
BORDER
 70
     0
  3

 72
    65
 73
     6
 40
42.0
 49
12.0
 74
     0
 49
-6.0
 74
     0
 49
12.0
 74
     0
 49
-5.95
 74
     0
 49
0.1
 74
     0
 49
-5.95
 74
     0
  0
LTYPE
  5
4C1
330
46F
100
AcDbSymbolTableRecord
100
AcDbLinetypeTableRecord
  2
BORDER2
 70
     0
  3

 72
    65
 73
     6
 40
21.0
 49
6.0
 74
     0
 49
-3.0
 74
     0
 49
6.0
 74
     0
 49
-2.95
 74
     0
 49
0.1
 74
     0
 49
-2.95
 74
     0
  0
LTYPE
  5
4C2
330
46F
100
AcDbSymbolTableRecord
100
AcDbLinetypeTableRecord
  2
BORDERX2
 70
     0
  3

 72
    65
 73
     6
 40
84.0
 49
24.0
 74
     0
 49
-12.0
 74
     0
 49
24.0
 74
     0
 49
-11.95
 74
     0
 49
0.1
 74
     0
 49
-11.95
 74
     0
  0
LTYPE
  5
4C3
330
46F
100
AcDbSymbolTableRecord
100
AcDbLinetypeTableRecord
  2
CENTER
 70
     0
  3

 72
    65
 73
     4
 40
50.0
 49
32.0
 74
     0
 49
-6.0
 74
     0
 49
6.0
 74
     0
 49
-6.0
 74
     0
  0
LTYPE
  5
4C4
330
46F
100
AcDbSymbolTableRecord
100
AcDbLinetypeTableRecord
  2
CENTER2
 70
     0
  3

 72
    65
 73
     4
 40
25.0
 49
16.0
 74
     0
 49
-3.0
 74
     0
 49
3.0
 74
     0
 49
-3.0
 74
     0
  0
LTYPE
  5
4C5
330
46F
100
AcDbSymbolTableRecord
100
AcDbLinetypeTableRecord
  2
CENTERX2
 70
     0
  3

 72
    65
 73
     4
 40
100.0
 49
64.0
 74
     0
 49
-12.0
 74
     0
 49
12.0
 74
     0
 49
-12.0
 74
     0
  0
LTYPE
  5
4C6
330
46F
100
AcDbSymbolTableRecord
100
AcDbLinetypeTableRecord
  2
DASHDOT
 70
     0
  3

 72
    65
 73
     4
 40
24.0
 49
12.0
 74
     0
 49
-5.95
 74
     0
 49
0.1
 74
     0
 49
-5.95
 74
     0
  0
LTYPE
  5
4C7
330
46F
100
AcDbSymbolTableRecord
100
AcDbLinetypeTableRecord
  2
DASHDOT2
 70
     0
  3

 72
    65
 73
     4
 40
12.0
 49
6.0
 74
     0
 49
-2.95
 74
     0
 49
0.1
 74
     0
 49
-2.95
 74
     0
  0
LTYPE
  5
4C8
330
46F
100
AcDbSymbolTableRecord
100
AcDbLinetypeTableRecord
  2
DASHDOTX2
 70
     0
  3

 72
    65
 73
     4
 40
48.0
 49
24.0
 74
     0
 49
-11.95
 74
     0
 49
0.1
 74
     0
 49
-11.95
 74
     0
  0
LTYPE
  5
4C9
330
46F
100
AcDbSymbolTableRecord
100
AcDbLinetypeTableRecord
  2
DASHED
 70
     0
  3

 72
    65
 73
     2
 40
18.0
 49
12.0
 74
     0
 49
-6.0
 74
     0
  0
LTYPE
  5
4CA
330
46F
100
AcDbSymbolTableRecord
100
AcDbLinetypeTableRecord
  2
DASHED2
 70
     0
  3

 72
    65
 73
     2
 40
9.0
 49
6.0
 74
     0
 49
-3.0
 74
     0
  0
LTYPE
  5
4CB
330
46F
100
AcDbSymbolTableRecord
100
AcDbLinetypeTableRecord
  2
DASHEDX2
 70
     0
  3

 72
    65
 73
     2
 40
36.0
 49
24.0
 74
     0
 49
-12.0
 74
     0
  0
LTYPE
  5
4CC
330
46F
100
AcDbSymbolTableRecord
100
AcDbLinetypeTableRecord
  2
DIVIDE
 70
     0
  3

 72
    65
 73
     6
 40
30.0
 49
12.0
 74
     0
 49
-5.9
 74
     0
 49
0.15
 74
     0
 49
-5.9
 74
     0
 49
0.15
 74
     0
 49
-5.9
 74
     0
  0
LTYPE
  5
4CD
330
46F
100
AcDbSymbolTableRecord
100
AcDbLinetypeTableRecord
  2
DIVIDE2
 70
     0
  3

 72
    65
 73
     6
 40
15.0
 49
6.0
 74
     0
 49
-2.9
 74
     0
 49
0.15
 74
     0
 49
-2.9
 74
     0
 49
0.15
 74
     0
 49
-2.9
 74
     0
  0
LTYPE
  5
4CE
330
46F
100
AcDbSymbolTableRecord
100
AcDbLinetypeTableRecord
  2
DIVIDEX2
 70
     0
  3

 72
    65
 73
     6
 40
60.0
 49
24.0
 74
     0
 49
-11.9
 74
     0
 49
0.15
 74
     0
 49
-11.9
 74
     0
 49
0.15
 74
     0
 49
-11.9
 74
     0
  0
LTYPE
  5
4CF
330
46F
100
AcDbSymbolTableRecord
100
AcDbLinetypeTableRecord
  2
DOT
 70
     0
  3

 72
    65
 73
     2
 40
6.3
 49
0.1
 74
     0
 49
-6.2
 74
     0
  0
LTYPE
  5
4D0
330
46F
100
AcDbSymbolTableRecord
100
AcDbLinetypeTableRecord
  2
DOT2
 70
     0
  3

 72
    65
 73
     2
 40
3.2
 49
0.1
 74
     0
 49
-3.1
 74
     0
  0
LTYPE
  5
4D1
330
46F
100
AcDbSymbolTableRecord
100
AcDbLinetypeTableRecord
  2
DOTX2
 70
     0
  3

 72
    65
 73
     2
 40
12.5
 49
0.1
 74
     0
 49
-12.4
 74
     0
  0
ENDTAB
  0
TABLE
  2
LAYER
  5
46C
330
0
100
AcDbSymbolTable
 70
     4
  0
LAYER
  5
47A
330
46C
100
AcDbSymbolTableRecord
100
AcDbLayerTableRecord
  2
0
 70
     0
 62
     7
  6
Continuous
370
    -3
390
479
  0
LAYER
  5
4D2
330
46C
100
AcDbSymbolTableRecord
100
AcDbLayerTableRecord
  2
Sketch Geometry(PEC)
 70
     0
 62
     7
  6
Continuous
370
    50
390
479
  0
LAYER
  5
4D3
330
46C
100
AcDbSymbolTableRecord
100
AcDbLayerTableRecord
  2
Symbols(PEC)
 70
     0
 62
     7
  6
Continuous
370
    25
390
479
  0
LAYER
  5
4D4
330
46C
100
AcDbSymbolTableRecord
100
AcDbLayerTableRecord
  2
Visible Edges(PEC)
 70
     0
 62
     7
  6
Continuous
370
    50
390
479
  0
ENDTAB
  0
TABLE
  2
STYLE
  5
46D
330
0
100
AcDbSymbolTable
 70
    32
  0
STYLE
  5
47B
330
46D
100
AcDbSymbolTableRecord
100
AcDbTextStyleTableRecord
  2
Standard
 70
     0
 40
0.0
 41
1.0
 50
0.0
 71
     0
 42
0.2
  3
txt
  4

  0
STYLE
  5
4ED
330
46D
100
AcDbSymbolTableRecord
100
AcDbTextStyleTableRecord
  2
textstyle0
 70
     0
 40
0.0
 41
1.0
 50
0.0
 71
     0
 42
0.2
  3

  4

1001
ACAD
1000
Arial
1071
 16777216
  0
STYLE
  5
4EE
330
46D
100
AcDbSymbolTableRecord
100
AcDbTextStyleTableRecord
  2
textstyle1
 70
     0
 40
0.0
 41
1.0
 50
0.0
 71
     0
 42
0.2
  3

  4

1001
ACAD
1000
Arial
1071
 16777216
  0
STYLE
  5
4EF
330
46D
100
AcDbSymbolTableRecord
100
AcDbTextStyleTableRecord
  2
textstyle2
 70
     0
 40
0.0
 41
1.0
 50
0.0
 71
     0
 42
0.2
  3

  4

1001
ACAD
1000
Arial
1071
 16777216
  0
STYLE
  5
4F0
330
46D
100
AcDbSymbolTableRecord
100
AcDbTextStyleTableRecord
  2
textstyle3
 70
     0
 40
0.0
 41
1.0
 50
0.0
 71
     0
 42
0.2
  3

  4

1001
ACAD
1000
Arial
1071
 16777216
  0
STYLE
  5
4F1
330
46D
100
AcDbSymbolTableRecord
100
AcDbTextStyleTableRecord
  2
textstyle4
 70
     0
 40
0.0
 41
1.0
 50
0.0
 71
     0
 42
0.2
  3

  4

1001
ACAD
1000
Arial
1071
 16777216
  0
STYLE
  5
4F2
330
46D
100
AcDbSymbolTableRecord
100
AcDbTextStyleTableRecord
  2
textstyle5
 70
     0
 40
0.0
 41
1.0
 50
0.0
 71
     0
 42
0.2
  3

  4

1001
ACAD
1000
Arial
1071
 16777216
  0
STYLE
  5
4F3
330
46D
100
AcDbSymbolTableRecord
100
AcDbTextStyleTableRecord
  2
textstyle6
 70
     0
 40
0.0
 41
1.0
 50
0.0
 71
     0
 42
0.2
  3

  4

1001
ACAD
1000
Arial
1071
 16777216
  0
STYLE
  5
4F4
330
46D
100
AcDbSymbolTableRecord
100
AcDbTextStyleTableRecord
  2
textstyle7
 70
     0
 40
0.0
 41
1.0
 50
0.0
 71
     0
 42
0.2
  3

  4

1001
ACAD
1000
Arial
1071
 16777216
  0
STYLE
  5
4F5
330
46D
100
AcDbSymbolTableRecord
100
AcDbTextStyleTableRecord
  2
textstyle8
 70
     0
 40
0.0
 41
1.0
 50
0.0
 71
     0
 42
0.2
  3

  4

1001
ACAD
1000
Arial
1071
 16777216
  0
STYLE
  5
4F6
330
46D
100
AcDbSymbolTableRecord
100
AcDbTextStyleTableRecord
  2
textstyle9
 70
     0
 40
0.0
 41
1.0
 50
0.0
 71
     0
 42
0.2
  3

  4

1001
ACAD
1000
Arial
1071
 16777216
  0
STYLE
  5
4F7
330
46D
100
AcDbSymbolTableRecord
100
AcDbTextStyleTableRecord
  2
textstyle10
 70
     0
 40
0.0
 41
1.0
 50
0.0
 71
     0
 42
0.2
  3

  4

1001
ACAD
1000
Arial
1071
 16777216
  0
STYLE
  5
4F8
330
46D
100
AcDbSymbolTableRecord
100
AcDbTextStyleTableRecord
  2
textstyle11
 70
     0
 40
0.0
 41
1.0
 50
0.0
 71
     0
 42
0.2
  3

  4

1001
ACAD
1000
Arial
1071
 16777216
  0
STYLE
  5
4F9
330
46D
100
AcDbSymbolTableRecord
100
AcDbTextStyleTableRecord
  2
textstyle12
 70
     0
 40
0.0
 41
1.0
 50
0.0
 71
     0
 42
0.2
  3

  4

1001
ACAD
1000
Arial
1071
 16777216
  0
STYLE
  5
4FA
330
46D
100
AcDbSymbolTableRecord
100
AcDbTextStyleTableRecord
  2
textstyle13
 70
     0
 40
0.0
 41
1.0
 50
0.0
 71
     0
 42
0.2
  3

  4

1001
ACAD
1000
Arial
1071
 16777216
  0
STYLE
  5
4FB
330
46D
100
AcDbSymbolTableRecord
100
AcDbTextStyleTableRecord
  2
textstyle14
 70
     0
 40
0.0
 41
1.0
 50
0.0
 71
     0
 42
0.2
  3

  4

1001
ACAD
1000
Arial
1071
 16777216
  0
STYLE
  5
4FC
330
46D
100
AcDbSymbolTableRecord
100
AcDbTextStyleTableRecord
  2
textstyle15
 70
     0
 40
0.0
 41
1.0
 50
0.0
 71
     0
 42
0.2
  3

  4

1001
ACAD
1000
Arial
1071
 16777216
  0
STYLE
  5
4FD
330
46D
100
AcDbSymbolTableRecord
100
AcDbTextStyleTableRecord
  2
textstyle16
 70
     0
 40
0.0
 41
1.0
 50
0.0
 71
     0
 42
0.2
  3

  4

1001
ACAD
1000
Arial
1071
 16777216
  0
STYLE
  5
4FE
330
46D
100
AcDbSymbolTableRecord
100
AcDbTextStyleTableRecord
  2
textstyle17
 70
     0
 40
0.0
 41
1.0
 50
0.0
 71
     0
 42
0.2
  3

  4

1001
ACAD
1000
Arial
1071
 16777216
  0
STYLE
  5
4FF
330
46D
100
AcDbSymbolTableRecord
100
AcDbTextStyleTableRecord
  2
textstyle18
 70
     0
 40
0.0
 41
1.0
 50
0.0
 71
     0
 42
0.2
  3

  4

1001
ACAD
1000
Arial
1071
 16777216
  0
STYLE
  5
500
330
46D
100
AcDbSymbolTableRecord
100
AcDbTextStyleTableRecord
  2
textstyle19
 70
     0
 40
0.0
 41
1.0
 50
0.0
 71
     0
 42
0.2
  3

  4

1001
ACAD
1000
Arial
1071
 16777216
  0
STYLE
  5
501
330
46D
100
AcDbSymbolTableRecord
100
AcDbTextStyleTableRecord
  2
textstyle20
 70
     0
 40
0.0
 41
1.0
 50
0.0
 71
     0
 42
0.2
  3

  4

1001
ACAD
1000
Arial
1071
 16777216
  0
STYLE
  5
502
330
46D
100
AcDbSymbolTableRecord
100
AcDbTextStyleTableRecord
  2
textstyle21
 70
     0
 40
0.0
 41
1.0
 50
0.0
 71
     0
 42
0.2
  3

  4

1001
ACAD
1000
Arial
1071
 16777216
  0
STYLE
  5
503
330
46D
100
AcDbSymbolTableRecord
100
AcDbTextStyleTableRecord
  2
textstyle22
 70
     0
 40
0.0
 41
1.0
 50
0.0
 71
     0
 42
0.2
  3

  4

1001
ACAD
1000
Arial
1071
 16777216
  0
STYLE
  5
504
330
46D
100
AcDbSymbolTableRecord
100
AcDbTextStyleTableRecord
  2
textstyle23
 70
     0
 40
0.0
 41
1.0
 50
0.0
 71
     0
 42
0.2
  3

  4

1001
ACAD
1000
Arial
1071
 16777216
  0
STYLE
  5
505
330
46D
100
AcDbSymbolTableRecord
100
AcDbTextStyleTableRecord
  2
textstyle24
 70
     0
 40
0.0
 41
1.0
 50
0.0
 71
     0
 42
0.2
  3

  4

1001
ACAD
1000
Arial
1071
 16777216
  0
STYLE
  5
506
330
46D
100
AcDbSymbolTableRecord
100
AcDbTextStyleTableRecord
  2
textstyle25
 70
     0
 40
0.0
 41
1.0
 50
0.0
 71
     0
 42
0.2
  3

  4

1001
ACAD
1000
Arial
1071
 16777216
  0
STYLE
  5
507
330
46D
100
AcDbSymbolTableRecord
100
AcDbTextStyleTableRecord
  2
textstyle26
 70
     0
 40
0.0
 41
1.0
 50
0.0
 71
     0
 42
0.2
  3

  4

1001
ACAD
1000
Arial
1071
 16777216
  0
STYLE
  5
508
330
46D
100
AcDbSymbolTableRecord
100
AcDbTextStyleTableRecord
  2
textstyle27
 70
     0
 40
0.0
 41
1.0
 50
0.0
 71
     0
 42
0.2
  3

  4

1001
ACAD
1000
Arial
1071
 16777216
  0
STYLE
  5
509
330
46D
100
AcDbSymbolTableRecord
100
AcDbTextStyleTableRecord
  2
textstyle28
 70
     0
 40
0.0
 41
1.0
 50
0.0
 71
     0
 42
0.2
  3

  4

1001
ACAD
1000
Arial
1071
 16777216
  0
STYLE
  5
50A
330
46D
100
AcDbSymbolTableRecord
100
AcDbTextStyleTableRecord
  2
textstyle29
 70
     0
 40
0.0
 41
1.0
 50
0.0
 71
     0
 42
0.2
  3

  4

1001
ACAD
1000
Arial
1071
 16777216
  0
STYLE
  5
50B
330
46D
100
AcDbSymbolTableRecord
100
AcDbTextStyleTableRecord
  2
textstyle30
 70
     0
 40
0.0
 41
1.0
 50
0.0
 71
     0
 42
0.2
  3

  4

1001
ACAD
1000
Arial
1071
 16777216
  0
ENDTAB
  0
TABLE
  2
VIEW
  5
470
330
0
100
AcDbSymbolTable
 70
     0
  0
ENDTAB
  0
TABLE
  2
UCS
  5
471
330
0
100
AcDbSymbolTable
 70
     0
  0
ENDTAB
  0
TABLE
  2
APPID
  5
473
330
0
100
AcDbSymbolTable
 70
     2
  0
APPID
  5
47C
330
473
100
AcDbSymbolTableRecord
100
AcDbRegAppTableRecord
  2
ACAD
 70
     0
  0
APPID
  5
4A8
330
473
100
AcDbSymbolTableRecord
100
AcDbRegAppTableRecord
  2
QCAD
 70
     0
  0
ENDTAB
  0
TABLE
  2
DIMSTYLE
  5
474
330
0
100
AcDbSymbolTable
 70
     2
100
AcDbDimStyleTable
  0
DIMSTYLE
105
490
330
474
100
AcDbSymbolTableRecord
100
AcDbDimStyleTableRecord
  2
Standard
 70
     0
178
     0
340
47B
  0
DIMSTYLE
105
4BF
330
474
100
AcDbSymbolTableRecord
100
AcDbDimStyleTableRecord
  2
QCADDimStyle
 70
     0
 41
1.799999999999999
 73
     0
 77
     1
140
0.25
178
     0
340
47B
  0
ENDTAB
  0
TABLE
  2
BLOCK_RECORD
  5
46B
330
0
100
AcDbSymbolTable
 70
     9
  0
BLOCK_RECORD
  5
488
330
46B
100
AcDbSymbolTableRecord
100
AcDbBlockTableRecord
  2
*Model_Space
340
48B
  0
BLOCK_RECORD
  5
484
330
46B
100
AcDbSymbolTableRecord
100
AcDbBlockTableRecord
  2
*Paper_Space
340
487
  0
BLOCK_RECORD
  5
48C
330
46B
100
AcDbSymbolTableRecord
100
AcDbBlockTableRecord
  2
*Paper_Space0
340
48F
  0
BLOCK_RECORD
  5
4D5
330
46B
100
AcDbSymbolTableRecord
100
AcDbBlockTableRecord
  2
_Closed
340
0
  0
BLOCK_RECORD
  5
4D8
330
46B
100
AcDbSymbolTableRecord
100
AcDbBlockTableRecord
  2
DatumFilled45
340
0
  0
BLOCK_RECORD
  5
4DB
330
46B
100
AcDbSymbolTableRecord
100
AcDbBlockTableRecord
  2
DatumThickLine
340
0
  0
BLOCK_RECORD
  5
4DE
330
46B
100
AcDbSymbolTableRecord
100
AcDbBlockTableRecord
  2
NR
340
0
  0
BLOCK_RECORD
  5
4E1
330
46B
100
AcDbSymbolTableRecord
100
AcDbBlockTableRecord
  2
Borders pexkada4
340
0
  0
BLOCK_RECORD
  5
4E4
330
46B
100
AcDbSymbolTableRecord
100
AcDbBlockTableRecord
  2
Title Blocks PEC-prod-dev-20090420
340
0
  0
BLOCK_RECORD
  5
4E7
330
46B
100
AcDbSymbolTableRecord
100
AcDbBlockTableRecord
  2
Filled-1
340
0
  0
BLOCK_RECORD
  5
4EA
330
46B
100
AcDbSymbolTableRecord
100
AcDbBlockTableRecord
  2
_Open
340
0
  0
ENDTAB
  0
ENDSEC
  0
SECTION
  2
BLOCKS
  0
BLOCK
  5
489
330
488
100
AcDbEntity
  8
0
100
AcDbBlockBegin
  2
*Model_Space
 70
     0
 10
0.0
 20
0.0
 30
0.0
  3
*Model_Space
  1

  0
ENDBLK
  5
48A
330
488
100
AcDbEntity
  8
0
100
AcDbBlockEnd
  0
BLOCK
  5
485
330
484
100
AcDbEntity
 67
     1
  8
0
100
AcDbBlockBegin
  2
*Paper_Space
 70
     0
 10
0.0
 20
0.0
 30
0.0
  3
*Paper_Space
  1

  0
ENDBLK
  5
486
330
484
100
AcDbEntity
 67
     1
  8
0
100
AcDbBlockEnd
  0
BLOCK
  5
48D
330
48C
100
AcDbEntity
  8
0
100
AcDbBlockBegin
  2
*Paper_Space0
 70
     0
 10
0.0
 20
0.0
 30
0.0
  3
*Paper_Space0
  1

  0
ENDBLK
  5
48E
330
48C
100
AcDbEntity
  8
0
100
AcDbBlockEnd
  0
BLOCK
  5
4D6
330
4D5
100
AcDbEntity
  8
0
100
AcDbBlockBegin
  2
_Closed
 70
     0
 10
0.0
 20
0.0
 30
0.0
  3
_Closed
  1

  0
LINE
  5
371
330
4D5
100
AcDbEntity
  8
0
  6
ByBlock
 62
     0
370
    -2
100
AcDbLine
 10
-1.0
 20
0.1666666666666666
 30
0.0
 11
0.0
 21
0.0
 31
0.0
  0
LINE
  5
372
330
4D5
100
AcDbEntity
  8
0
  6
ByBlock
 62
     0
370
    -2
100
AcDbLine
 10
0.0
 20
0.0
 30
0.0
 11
-1.0
 21
-0.1666666666666666
 31
0.0
  0
LINE
  5
373
330
4D5
100
AcDbEntity
  8
0
  6
ByBlock
 62
     0
370
    -2
100
AcDbLine
 10
-1.0
 20
0.1666666666666666
 30
0.0
 11
-1.0
 21
-0.1666666666666666
 31
0.0
  0
LINE
  5
374
330
4D5
100
AcDbEntity
  8
0
  6
ByBlock
 62
     0
370
    -2
100
AcDbLine
 10
0.0
 20
0.0
 30
0.0
 11
-1.0
 21
0.0
 31
0.0
  0
ENDBLK
  5
4D7
330
4D5
100
AcDbEntity
  8
0
100
AcDbBlockEnd
  0
BLOCK
  5
4D9
330
4D8
100
AcDbEntity
  8
0
100
AcDbBlockBegin
  2
DatumFilled45
 70
     0
 10
0.0
 20
0.0
 30
0.0
  3
DatumFilled45
  1

  0
LWPOLYLINE
  5
375
330
4D8
100
AcDbEntity
  8
0
 62
     0
100
AcDbPolyline
 90
        4
 70
     0
 43
0.0
 10
0.0
 20
1.0
 10
0.0
 20
-1.0
 10
-1.0
 20
0.0
 10
0.0
 20
1.0
  0
SOLID
  5
376
330
4D8
100
AcDbEntity
  8
0
 62
     0
100
AcDbTrace
 10
0.0
 20
1.0
 30
0.0
 11
0.0
 21
-1.0
 31
0.0
 12
-1.0
 22
0.0
 32
0.0
 13
0.0
 23
1.0
 33
0.0
  0
ENDBLK
  5
4DA
330
4D8
100
AcDbEntity
  8
0
100
AcDbBlockEnd
  0
BLOCK
  5
4DC
330
4DB
100
AcDbEntity
  8
0
100
AcDbBlockBegin
  2
DatumThickLine
 70
     0
 10
0.0
 20
0.0
 30
0.0
  3
DatumThickLine
  1

  0
LWPOLYLINE
  5
2F4
330
4DB
100
AcDbEntity
  8
0
 62
     0
100
AcDbPolyline
 90
        4
 70
     0
 43
0.0
 10
-0.25
 20
1.0
 10
-0.25
 20
-1.0
 10
-0.5
 20
-1.0
 10
-0.25
 20
1.0
  0
SOLID
  5
2F5
330
4DB
100
AcDbEntity
  8
0
 62
     0
100
AcDbTrace
 10
-0.25
 20
1.0
 30
0.0
 11
-0.25
 21
-1.0
 31
0.0
 12
-0.5
 22
-1.0
 32
0.0
 13
-0.25
 23
1.0
 33
0.0
  0
LWPOLYLINE
  5
2F6
330
4DB
100
AcDbEntity
  8
0
 62
     0
100
AcDbPolyline
 90
        4
 70
     0
 43
0.0
 10
-0.25
 20
1.0
 10
-0.5
 20
-1.0
 10
-0.5
 20
-1.0
 10
-0.25
 20
1.0
  0
SOLID
  5
2F7
330
4DB
100
AcDbEntity
  8
0
 62
     0
100
AcDbTrace
 10
-0.25
 20
1.0
 30
0.0
 11
-0.5
 21
-1.0
 31
0.0
 12
-0.5
 22
-1.0
 32
0.0
 13
-0.25
 23
1.0
 33
0.0
  0
LWPOLYLINE
  5
2F8
330
4DB
100
AcDbEntity
  8
0
 62
     0
100
AcDbPolyline
 90
        4
 70
     0
 43
0.0
 10
-0.25
 20
1.0
 10
-0.5
 20
-1.0
 10
-0.5
 20
1.0
 10
-0.25
 20
1.0
  0
SOLID
  5
2F9
330
4DB
100
AcDbEntity
  8
0
 62
     0
100
AcDbTrace
 10
-0.25
 20
1.0
 30
0.0
 11
-0.5
 21
-1.0
 31
0.0
 12
-0.5
 22
1.0
 32
0.0
 13
-0.25
 23
1.0
 33
0.0
  0
LWPOLYLINE
  5
2FA
330
4DB
100
AcDbEntity
  8
0
 62
     0
100
AcDbPolyline
 90
        4
 70
     0
 43
0.0
 10
-0.25
 20
1.0
 10
-0.5
 20
1.0
 10
-0.25
 20
1.0
 10
-0.25
 20
1.0
  0
SOLID
  5
2FB
330
4DB
100
AcDbEntity
  8
0
 62
     0
100
AcDbTrace
 10
-0.25
 20
1.0
 30
0.0
 11
-0.5
 21
1.0
 31
0.0
 12
-0.25
 22
1.0
 32
0.0
 13
-0.25
 23
1.0
 33
0.0
  0
LINE
  5
2FC
330
4DB
100
AcDbEntity
  8
0
 62
     0
100
AcDbLine
 10
-1.0
 20
0.0
 30
0.0
 11
-0.5
 21
0.0
 31
0.0
  0
LINE
  5
2FD
330
4DB
100
AcDbEntity
  8
0
 62
     0
100
AcDbLine
 10
-0.5
 20
0.0
 30
0.0
 11
-1.0
 21
0.0
 31
0.0
  0
ENDBLK
  5
4DD
330
4DB
100
AcDbEntity
  8
0
100
AcDbBlockEnd
  0
BLOCK
  5
4DF
330
4DE
100
AcDbEntity
  8
0
100
AcDbBlockBegin
  2
NR
 70
     0
 10
0.0
 20
0.0
 30
0.0
  3
NR
  1

  0
LINE
  5
2FE
330
4DE
100
AcDbEntity
  8
Sketch Geometry(PEC)
  6
Continuous
 62
     7
370
    25
100
AcDbLine
 10
-5.0
 20
-1.25
 30
0.0
 11
-5.0
 21
1.25
 31
0.0
  0
LINE
  5
2FF
330
4DE
100
AcDbEntity
  8
Sketch Geometry(PEC)
  6
Continuous
 62
     7
370
    25
100
AcDbLine
 10
-5.0
 20
1.25
 30
0.0
 11
5.0
 21
1.25
 31
0.0
  0
LINE
  5
300
330
4DE
100
AcDbEntity
  8
Sketch Geometry(PEC)
  6
Continuous
 62
     7
370
    25
100
AcDbLine
 10
-5.0
 20
-1.25
 30
0.0
 11
5.0
 21
-1.25
 31
0.0
  0
LINE
  5
301
330
4DE
100
AcDbEntity
  8
Sketch Geometry(PEC)
  6
Continuous
 62
     7
370
    25
100
AcDbLine
 10
5.0
 20
-1.25
 30
0.0
 11
5.0
 21
1.25
 31
0.0
  0
LINE
  5
302
330
4DE
100
AcDbEntity
  8
Sketch Geometry(PEC)
  6
Continuous
 62
     7
370
    25
100
AcDbLine
 10
-1.723677724431205
 20
-1.25
 30
0.0
 11
0.7763222755687949
 21
1.25
 31
0.0
  0
LINE
  5
303
330
4DE
100
AcDbEntity
  8
Sketch Geometry(PEC)
  6
Continuous
 62
     7
370
    25
100
AcDbLine
 10
-3.13789128680426
 20
-1.25
 30
0.0
 11
-0.6378912868042974
 21
1.25
 31
0.0
  0
LINE
  5
304
330
4DE
100
AcDbEntity
  8
Sketch Geometry(PEC)
  6
Continuous
 62
     7
370
    25
100
AcDbLine
 10
-4.552104849177353
 20
-1.25
 30
0.0
 11
-2.052104849177424
 21
1.25
 31
0.0
  0
LINE
  5
305
330
4DE
100
AcDbEntity
  8
Sketch Geometry(PEC)
  6
Continuous
 62
     7
370
    25
100
AcDbLine
 10
-5.0
 20
-0.2836815884495536
 30
0.0
 11
-3.466318411550445
 21
1.25
 31
0.0
  0
LINE
  5
306
330
4DE
100
AcDbEntity
  8
Sketch Geometry(PEC)
  6
Continuous
 62
     7
370
    25
100
AcDbLine
 10
-5.0
 20
1.130531973923537
 30
0.0
 11
-4.880531973923574
 21
1.25
 31
0.0
  0
LINE
  5
307
330
4DE
100
AcDbEntity
  8
Sketch Geometry(PEC)
  6
Continuous
 62
     7
370
    25
100
AcDbLine
 10
-0.3094641620580774
 20
-1.25
 30
0.0
 11
2.190535837941921
 21
1.25
 31
0.0
  0
LINE
  5
308
330
4DE
100
AcDbEntity
  8
Sketch Geometry(PEC)
  6
Continuous
 62
     7
370
    25
100
AcDbLine
 10
1.104749400315014
 20
-1.25
 30
0.0
 11
3.604749400315013
 21
1.25
 31
0.0
  0
LINE
  5
309
330
4DE
100
AcDbEntity
  8
Sketch Geometry(PEC)
  6
Continuous
 62
     7
370
    25
100
AcDbLine
 10
2.518962962688106
 20
-1.25
 30
0.0
 11
5.0
 21
1.231037037311891
 31
0.0
  0
LINE
  5
30A
330
4DE
100
AcDbEntity
  8
Sketch Geometry(PEC)
  6
Continuous
 62
     7
370
    25
100
AcDbLine
 10
3.933176525061233
 20
-1.25
 30
0.0
 11
5.0
 21
-0.1831765250612349
 31
0.0
  0
ENDBLK
  5
4E0
330
4DE
100
AcDbEntity
  8
0
100
AcDbBlockEnd
  0
BLOCK
  5
4E2
330
4E1
100
AcDbEntity
  8
0
100
AcDbBlockBegin
  2
Borders pexkada4
 70
     0
 10
0.0
 20
0.0
 30
0.0
  3
Borders pexkada4
  1

  0
LINE
  5
30B
330
4E1
100
AcDbEntity
  8
Sketch Geometry(PEC)
100
AcDbLine
 10
14.0
 20
10.0
 30
0.0
 11
204.0
 21
10.0
 31
0.0
  0
LINE
  5
30C
330
4E1
100
AcDbEntity
  8
Sketch Geometry(PEC)
100
AcDbLine
 10
204.0
 20
10.0
 30
0.0
 11
204.0
 21
287.0
 31
0.0
  0
LINE
  5
30D
330
4E1
100
AcDbEntity
  8
Sketch Geometry(PEC)
100
AcDbLine
 10
204.0
 20
287.0
 30
0.0
 11
13.99999999999998
 21
287.0
 31
0.0
  0
LINE
  5
30E
330
4E1
100
AcDbEntity
  8
Sketch Geometry(PEC)
100
AcDbLine
 10
14.0
 20
287.0
 30
0.0
 11
14.0
 21
10.0
 31
0.0
  0
LINE
  5
30F
330
4E1
100
AcDbEntity
  8
Sketch Geometry(PEC)
100
AcDbLine
 10
0.0
 20
148.5
 30
0.0
 11
14.0
 21
148.5
 31
0.0
  0
ENDBLK
  5
4E3
330
4E1
100
AcDbEntity
  8
0
100
AcDbBlockEnd
  0
BLOCK
  5
4E5
330
4E4
100
AcDbEntity
  8
0
100
AcDbBlockBegin
  2
Title Blocks PEC-prod-dev-20090420
 70
     0
 10
0.0
 20
0.0
 30
0.0
  3
Title Blocks PEC-prod-dev-20090420
  1

  0
LINE
  5
310
330
4E4
100
AcDbEntity
  8
Sketch Geometry(PEC)
100
AcDbLine
 10
370.0
 20
9.999999999999975
 30
0.0
 11
370.0
 21
23.33333359999977
 31
0.0
  0
LINE
  5
311
330
4E4
100
AcDbEntity
  8
Sketch Geometry(PEC)
100
AcDbLine
 10
410.0
 20
30.00000020000003
 30
0.0
 11
370.0
 21
30.00000019999999
 31
0.0
  0
LINE
  5
312
330
4E4
100
AcDbEntity
  8
Sketch Geometry(PEC)
  6
Continuous
 62
     7
370
    25
100
AcDbLine
 10
381.068296044104
 20
26.68595822022858
 30
0.0
 11
379.068296044104
 21
26.68595822022858
 31
0.0
  0
LINE
  5
313
330
4E4
100
AcDbEntity
  8
Sketch Geometry(PEC)
100
AcDbLine
 10
379.8963680652619
 20
28.18595822022859
 30
0.0
 11
389.8963680652619
 21
29.18595822022858
 31
0.0
  0
LINE
  5
314
330
4E4
100
AcDbEntity
  8
Sketch Geometry(PEC)
100
AcDbLine
 10
389.8963680652619
 20
24.18595822022858
 30
0.0
 11
379.8963680652619
 21
25.18595822022859
 31
0.0
  0
LINE
  5
315
330
4E4
100
AcDbEntity
  8
Sketch Geometry(PEC)
100
AcDbLine
 10
370.0
 20
56.6666666
 30
0.0
 11
370.0
 21
23.33333359999977
 31
0.0
  0
LINE
  5
316
330
4E4
100
AcDbEntity
  8
Sketch Geometry(PEC)
  6
Continuous
 62
     7
370
    25
100
AcDbLine
 10
251.2927195397619
 20
50.03359124979386
 30
0.0
 11
251.2927195397619
 21
56.66666660000005
 31
0.0
  0
LINE
  5
317
330
4E4
100
AcDbEntity
  8
Sketch Geometry(PEC)
  6
Continuous
 62
     7
370
    25
100
AcDbLine
 10
371.3165129604993
 20
20.82818545749443
 30
0.0
 11
371.4359809865758
 21
20.94765348357089
 31
0.0
  0
LINE
  5
318
330
4E4
100
AcDbEntity
  8
Sketch Geometry(PEC)
  6
Continuous
 62
     7
370
    25
100
AcDbLine
 10
371.3165129604993
 20
19.41397189512137
 30
0.0
 11
372.8501945489489
 21
20.94765348357089
 31
0.0
  0
LINE
  5
319
330
4E4
100
AcDbEntity
  8
Sketch Geometry(PEC)
  6
Continuous
 62
     7
370
    25
100
AcDbLine
 10
371.7644081113221
 20
18.44765348357089
 30
0.0
 11
374.264408111322
 21
20.94765348357089
 31
0.0
  0
LINE
  5
31A
330
4E4
100
AcDbEntity
  8
Sketch Geometry(PEC)
  6
Continuous
 62
     7
370
    25
100
AcDbLine
 10
373.1786216736951
 20
18.44765348357089
 30
0.0
 11
375.6786216736951
 21
20.94765348357089
 31
0.0
  0
LINE
  5
31B
330
4E4
100
AcDbEntity
  8
Sketch Geometry(PEC)
  6
Continuous
 62
     7
370
    25
100
AcDbLine
 10
371.3165129604993
 20
18.44765348357088
 30
0.0
 11
371.3165129604993
 21
20.94765348357089
 31
0.0
  0
LINE
  5
31C
330
4E4
100
AcDbEntity
  8
Sketch Geometry(PEC)
  6
Continuous
 62
     7
370
    25
100
AcDbLine
 10
396.5682960441041
 20
30.00000019999998
 30
0.0
 11
396.5682960441041
 21
28.18595822022859
 31
0.0
  0
LINE
  5
31D
330
4E4
100
AcDbEntity
  8
Sketch Geometry(PEC)
  6
Continuous
 62
     7
370
    25
100
AcDbLine
 10
400.0682960441039
 20
26.68595822022858
 30
0.0
 11
398.0682960441042
 21
26.68595822022858
 31
0.0
  0
LINE
  5
31E
330
4E4
100
AcDbEntity
  8
Sketch Geometry(PEC)
  6
Continuous
 62
     7
370
    25
100
AcDbLine
 10
396.5682960441041
 20
25.18595822022859
 30
0.0
 11
396.5682960441041
 21
23.33333399999983
 31
0.0
  0
LINE
  5
31F
330
4E4
100
AcDbEntity
  8
Sketch Geometry(PEC)
  6
Continuous
 62
     7
370
    25
100
AcDbLine
 10
396.5682960441041
 20
27.18595822022859
 30
0.0
 11
396.5682960441041
 21
26.1859582202286
 31
0.0
  0
LINE
  5
320
330
4E4
100
AcDbEntity
  8
Sketch Geometry(PEC)
  6
Continuous
 62
     7
370
    25
100
AcDbLine
 10
397.0682960441042
 20
26.68595822022858
 30
0.0
 11
396.0682960441042
 21
26.68595822022858
 31
0.0
  0
CIRCLE
  5
321
330
4E4
100
AcDbEntity
  8
Sketch Geometry(PEC)
100
AcDbCircle
 10
396.5682960441041
 20
26.68595822022858
 30
0.0
 40
2.5
  0
CIRCLE
  5
322
330
4E4
100
AcDbEntity
  8
Sketch Geometry(PEC)
100
AcDbCircle
 10
396.5682960441041
 20
26.68595822022858
 30
0.0
 40
1.5
  0
LINE
  5
323
330
4E4
100
AcDbEntity
  8
Sketch Geometry(PEC)
  6
Continuous
 62
     7
370
    25
100
AcDbLine
 10
390.0682960441042
 20
26.68595822022858
 30
0.0
 11
389.068296044104
 21
26.68595822022858
 31
0.0
  0
LINE
  5
324
330
4E4
100
AcDbEntity
  8
Sketch Geometry(PEC)
  6
Continuous
 62
     7
370
    25
100
AcDbLine
 10
383.068296044104
 20
26.68595822022858
 30
0.0
 11
382.0682960441041
 21
26.68595822022858
 31
0.0
  0
LINE
  5
325
330
4E4
100
AcDbEntity
  8
Sketch Geometry(PEC)
  6
Continuous
 62
     7
370
    25
100
AcDbLine
 10
388.0682960441042
 20
26.68595822022858
 30
0.0
 11
384.0682960441041
 21
26.68595822022858
 31
0.0
  0
LINE
  5
326
330
4E4
100
AcDbEntity
  8
Sketch Geometry(PEC)
100
AcDbLine
 10
389.8963680652619
 20
29.18595822022858
 30
0.0
 11
389.8963680652619
 21
24.18595822022858
 31
0.0
  0
LINE
  5
327
330
4E4
100
AcDbEntity
  8
Sketch Geometry(PEC)
  6
Continuous
 62
     7
370
    25
100
AcDbLine
 10
395.068296044104
 20
26.68595822022858
 30
0.0
 11
391.068296044104
 21
26.68595822022858
 31
0.0
  0
LINE
  5
328
330
4E4
100
AcDbEntity
  8
Sketch Geometry(PEC)
100
AcDbLine
 10
379.8963680652619
 20
25.18595822022859
 30
0.0
 11
379.8963680652619
 21
28.18595822022859
 31
0.0
  0
LINE
  5
329
330
4E4
100
AcDbEntity
  8
Sketch Geometry(PEC)
  6
Continuous
 62
     7
370
    25
100
AcDbLine
 10
377.4212623608145
 20
18.44765348357089
 30
0.0
 11
378.4967240411556
 21
19.52311516391202
 31
0.0
  0
LINE
  5
32A
330
4E4
100
AcDbEntity
  8
Sketch Geometry(PEC)
  6
Continuous
 62
     7
370
    25
100
AcDbLine
 10
378.4967240411556
 20
18.44765348357088
 30
0.0
 11
378.4967240411556
 21
20.94765348357089
 31
0.0
  0
LINE
  5
32B
330
4E4
100
AcDbEntity
  8
Sketch Geometry(PEC)
  6
Continuous
 62
     7
370
    25
100
AcDbLine
 10
376.0070487984414
 20
18.44765348357089
 30
0.0
 11
378.5070487984413
 21
20.94765348357087
 31
0.0
  0
LINE
  5
32C
330
4E4
100
AcDbEntity
  8
Sketch Geometry(PEC)
100
AcDbLine
 10
220.0
 20
56.66666660000005
 30
0.0
 11
410.0
 21
56.6666665999999
 31
0.0
  0
LINE
  5
32D
330
4E4
100
AcDbEntity
  8
Sketch Geometry(PEC)
100
AcDbLine
 10
299.9999999999998
 20
43.33333340000002
 30
0.0
 11
220.0
 21
43.33333340000002
 31
0.0
  0
LINE
  5
32E
330
4E4
100
AcDbEntity
  8
Sketch Geometry(PEC)
100
AcDbLine
 10
410.0
 20
23.33333359999972
 30
0.0
 11
220.0
 21
23.33333359999996
 31
0.0
  0
LINE
  5
32F
330
4E4
100
AcDbEntity
  8
Sketch Geometry(PEC)
100
AcDbLine
 10
410.0
 20
9.999999999999973
 30
0.0
 11
410.0
 21
56.6666665999999
 31
0.0
  0
LINE
  5
330
330
4E4
100
AcDbEntity
  8
Sketch Geometry(PEC)
100
AcDbLine
 10
260.0
 20
10.00000000000005
 30
0.0
 11
260.0
 21
23.3333335999999
 31
0.0
  0
LINE
  5
331
330
4E4
100
AcDbEntity
  8
Sketch Geometry(PEC)
  6
Continuous
 62
     7
370
    25
100
AcDbLine
 10
279.9999999999997
 20
23.33333359999988
 30
0.0
 11
279.9999999999997
 21
16.66666700000002
 31
0.0
  0
LINE
  5
332
330
4E4
100
AcDbEntity
  8
Sketch Geometry(PEC)
  6
Continuous
 62
     7
370
    25
100
AcDbLine
 10
239.3537402283085
 20
10.00000000000002
 30
0.0
 11
239.3537402283085
 21
50.00000000000003
 31
0.0
  0
LINE
  5
333
330
4E4
100
AcDbEntity
  8
Sketch Geometry(PEC)
100
AcDbLine
 10
260.0
 20
43.3333334
 30
0.0
 11
260.0
 21
50.00000000000003
 31
0.0
  0
LINE
  5
334
330
4E4
100
AcDbEntity
  8
Sketch Geometry(PEC)
  6
Continuous
 62
     7
370
    25
100
AcDbLine
 10
270.0
 20
43.3333334
 30
0.0
 11
270.0
 21
50.00000000000003
 31
0.0
  0
LINE
  5
335
330
4E4
100
AcDbEntity
  8
Sketch Geometry(PEC)
100
AcDbLine
 10
299.9999999999999
 20
16.66666700000002
 30
0.0
 11
299.9999999999998
 21
56.66666660000004
 31
0.0
  0
LINE
  5
336
330
4E4
100
AcDbEntity
  8
Sketch Geometry(PEC)
  6
Continuous
 62
     7
370
    25
100
AcDbLine
 10
313.485860149718
 20
23.33333359999985
 30
0.0
 11
313.485860149718
 21
50.00000000000007
 31
0.0
  0
LINE
  5
337
330
4E4
100
AcDbEntity
  8
Sketch Geometry(PEC)
100
AcDbLine
 10
220.0
 20
56.66666660000005
 30
0.0
 11
220.0
 21
10.0
 31
0.0
  0
LINE
  5
338
330
4E4
100
AcDbEntity
  8
Sketch Geometry(PEC)
100
AcDbLine
 10
370.0
 20
50.00000000000007
 30
0.0
 11
220.0
 21
50.0
 31
0.0
  0
LINE
  5
339
330
4E4
100
AcDbEntity
  8
Sketch Geometry(PEC)
100
AcDbLine
 10
220.0
 20
10.0
 30
0.0
 11
410.0
 21
9.999999999999973
 31
0.0
  0
LINE
  5
33A
330
4E4
100
AcDbEntity
  8
Sketch Geometry(PEC)
  6
Continuous
 62
     7
370
    25
100
AcDbLine
 10
371.3165129604993
 20
20.94765348357087
 30
0.0
 11
378.5070487984413
 21
20.94765348357087
 31
0.0
  0
LINE
  5
33B
330
4E4
100
AcDbEntity
  8
Sketch Geometry(PEC)
  6
Continuous
 62
     7
370
    25
100
AcDbLine
 10
371.3165129604993
 20
18.44765348357088
 30
0.0
 11
378.4967240411556
 21
18.44765348357088
 31
0.0
  0
LINE
  5
33C
330
4E4
100
AcDbEntity
  8
Sketch Geometry(PEC)
100
AcDbLine
 10
370.0
 20
36.66666680000016
 30
0.0
 11
220.0
 21
36.66666680000008
 31
0.0
  0
LINE
  5
33D
330
4E4
100
AcDbEntity
  8
Sketch Geometry(PEC)
100
AcDbLine
 10
299.9999999999998
 20
30.00000020000003
 30
0.0
 11
220.0
 21
30.00000020000009
 31
0.0
  0
LINE
  5
33E
330
4E4
100
AcDbEntity
  8
Sketch Geometry(PEC)
  6
Continuous
 62
   208
370
    25
100
AcDbLine
 10
381.7661563015469
 20
16.66666700000002
 30
0.0
 11
381.7661563015469
 21
9.999999999999975
 31
0.0
  0
LINE
  5
33F
330
4E4
100
AcDbEntity
  8
Sketch Geometry(PEC)
100
AcDbLine
 10
393.0753218985461
 20
16.66666700000002
 30
0.0
 11
393.0753218985461
 21
9.999999999999975
 31
0.0
  0
LINE
  5
340
330
4E4
100
AcDbEntity
  8
Sketch Geometry(PEC)
  6
Continuous
 62
   208
370
    25
100
AcDbLine
 10
402.2897970427406
 20
16.66666700000002
 30
0.0
 11
402.2897970427406
 21
9.999999999999973
 31
0.0
  0
LINE
  5
341
330
4E4
100
AcDbEntity
  8
Sketch Geometry(PEC)
100
AcDbLine
 10
370.0
 20
16.66666700000002
 30
0.0
 11
410.0
 21
16.66666700000002
 31
0.0
  0
LINE
  5
342
330
4E4
100
AcDbEntity
  8
Sketch Geometry(PEC)
 62
   208
370
    18
100
AcDbLine
 10
340.5038788953762
 20
9.999999999999984
 30
0.0
 11
340.5038788953762
 21
23.33333359999981
 31
0.0
  0
LINE
  5
343
330
4E4
100
AcDbEntity
  8
Sketch Geometry(PEC)
100
AcDbLine
 10
220.0
 20
16.66666700000002
 30
0.0
 11
279.9999999999997
 21
16.66666700000002
 31
0.0
  0
LINE
  5
344
330
4E4
100
AcDbEntity
  8
Sketch Geometry(PEC)
  6
Continuous
 62
     7
370
    25
100
AcDbLine
 10
299.9999999999999
 20
16.66666700000002
 30
0.0
 11
370.0
 21
16.66666700000002
 31
0.0
  0
LINE
  5
345
330
4E4
100
AcDbEntity
  8
Sketch Geometry(PEC)
100
AcDbLine
 10
279.9999999999997
 20
16.66666700000002
 30
0.0
 11
299.9999999999999
 21
16.66666700000002
 31
0.0
  0
LINE
  5
346
330
4E4
100
AcDbEntity
  8
Sketch Geometry(PEC)
 62
     7
370
    25
100
AcDbLine
 10
299.9999999999999
 20
16.66666700000002
 30
0.0
 11
299.9999999999999
 21
9.999999999999988
 31
0.0
  0
LINE
  5
347
330
4E4
100
AcDbEntity
  8
Sketch Geometry(PEC)
100
AcDbLine
 10
279.9999999999997
 20
16.66666700000002
 30
0.0
 11
279.9999999999997
 21
9.999999999999991
 31
0.0
  0
LINE
  5
348
330
4E4
100
AcDbEntity
  8
Sketch Geometry(PEC)
  6
Continuous
 62
     7
370
    25
100
AcDbLine
 10
374.5928352360682
 20
18.44765348357089
 30
0.0
 11
377.0928352360682
 21
20.94765348357089
 31
0.0
  0
MTEXT
  5
349
330
4E4
100
AcDbEntity
  8
Symbols(PEC)
 62
     7
100
AcDbMText
 10
300.6814078256325
 20
47.92333533984082
 30
0.0
 40
2.5
 41
0.0
 71
     1
 72
     1
  1
\fArial|b0|i1;Project:
  7
textstyle0
 73
     1
 44
1.0
  0
MTEXT
  5
34A
330
4E4
100
AcDbEntity
  8
Symbols(PEC)
 62
     7
100
AcDbMText
 10
300.7980780898657
 20
35.34811263792887
 30
0.0
 40
2.5
 41
0.0
 71
     1
 72
     1
  1
\fArial|b0|i1;Name:
  7
textstyle1
 73
     1
 44
1.0
  0
MTEXT
  5
34B
330
4E4
100
AcDbEntity
  8
Symbols(PEC)
 62
     7
100
AcDbMText
 10
332.6950916212258
 20
21.07469139370756
 30
0.0
 40
2.5
 41
0.0
 71
     1
 72
     1
  1
\fArial|b0|i1;7NC V - YYYYMMDD
  7
textstyle2
 73
     1
 44
1.0
  0
MTEXT
  5
34C
330
4E4
100
AcDbEntity
  8
Symbols(PEC)
 62
     7
100
AcDbMText
 10
370.5931152212612
 20
14.30861449721746
 30
0.0
 40
2.5
 41
0.0
 71
     1
 72
     1
  1
\fArial|b0|i1;Sheet:
  7
textstyle3
 73
     1
 44
1.0
  0
MTEXT
  5
34D
330
4E4
100
AcDbEntity
  8
Symbols(PEC)
 62
     7
100
AcDbMText
 10
393.6251552826945
 20
14.61190511618728
 30
0.0
 40
2.5
 41
0.0
 71
     1
 72
     1
  1
\fArial|b0|i1;Size:
  7
textstyle4
 73
     1
 44
1.0
  0
MTEXT
  5
34E
330
4E4
100
AcDbEntity
  8
Symbols(PEC)
 62
     7
100
AcDbMText
 10
280.8687669623088
 20
14.55149098985105
 30
0.0
 40
2.5
 41
0.0
 71
     1
 72
     1
  1
\fArial|b0|i1;Drawing no:
  7
textstyle5
 73
     1
 44
1.0
  0
MTEXT
  5
34F
330
4E4
100
AcDbEntity
  8
Symbols(PEC)
 62
     7
100
AcDbMText
 10
260.7947967775297
 20
21.3456337872549
 30
0.0
 40
2.5
 41
0.0
 71
     1
 72
     1
  1
\fArial|b0|i1;Scale:
  7
textstyle6
 73
     1
 44
1.0
  0
MTEXT
  5
350
330
4E4
100
AcDbEntity
  8
Symbols(PEC)
 62
     7
100
AcDbMText
 10
221.036521937656
 20
14.55149084083944
 30
0.0
 40
2.5
 41
0.0
 71
     1
 72
     1
  1
\fArial|b0|i1;Checked:
  7
textstyle7
 73
     1
 44
1.0
  0
MTEXT
  5
351
330
4E4
100
AcDbEntity
  8
Symbols(PEC)
 62
     7
100
AcDbMText
 10
221.036521937656
 20
21.34563393626651
 30
0.0
 40
2.5
 41
0.0
 71
     1
 72
     1
  1
\fArial|b0|i1;Drawn:
  7
textstyle8
 73
     1
 44
1.0
  0
MTEXT
  5
352
330
4E4
100
AcDbEntity
  8
Symbols(PEC)
 62
     7
100
AcDbMText
 10
221.036521937656
 20
27.83367217760967
 30
0.0
 40
2.5
 41
0.0
 71
     1
 72
     1
  1
\fArial|b0|i1;Material:
  7
textstyle9
 73
     1
 44
1.0
  0
MTEXT
  5
353
330
4E4
100
AcDbEntity
  8
Symbols(PEC)
 62
     7
100
AcDbMText
 10
221.036521937656
 20
34.48096359989823
 30
0.0
 40
2.5
 41
0.0
 71
     1
 72
     1
  1
\fArial|b0|i1;Remark:
  7
textstyle10
 73
     1
 44
1.0
  0
MTEXT
  5
354
330
4E4
100
AcDbEntity
  8
Symbols(PEC)
 62
     7
100
AcDbMText
 10
221.036521937656
 20
41.14286650509168
 30
0.0
 40
2.5
 41
0.0
 71
     1
 72
     1
  1
\fArial|b0|i1;Surface tr.:
  7
textstyle11
 73
     1
 44
1.0
  0
MTEXT
  5
355
330
4E4
100
AcDbEntity
  8
Symbols(PEC)
 62
     7
100
AcDbMText
 10
221.036521937656
 20
47.76999960266868
 30
0.0
 40
2.5
 41
0.0
 71
     1
 72
     1
  1
\fArial|b0|i1;Mass:
  7
textstyle12
 73
     1
 44
1.0
  0
MTEXT
  5
356
330
4E4
100
AcDbEntity
  8
Symbols(PEC)
 62
     7
100
AcDbMText
 10
221.036521937656
 20
54.5975941139706
 30
0.0
 40
2.5
 41
0.0
 71
     1
 72
     1
  1
\fArial|b0|i1;General tolerance:
  7
textstyle13
 73
     1
 44
1.0
  0
MTEXT
  5
357
330
4E4
100
AcDbEntity
  8
Symbols(PEC)
 62
     7
100
AcDbMText
 10
260.7947967775297
 20
47.76999960266868
 30
0.0
 40
2.5
 41
0.0
 71
     1
 72
     1
  1
\fArial|b0|i1;Ra:
  7
textstyle14
 73
     1
 44
1.0
  0
MTEXT
  5
358
330
4E4
100
AcDbEntity
  8
Symbols(PEC)
 62
     7
100
AcDbMText
 10
381.0160328945533
 20
21.81589049827483
 30
0.0
 40
2.5
 41
0.0
 71
     1
 72
     1
  1
\fArial|b0|i1;= 
  7
textstyle15
 73
     1
 44
1.0
  0
MTEXT
  5
359
330
4E4
100
AcDbEntity
  8
Symbols(PEC)
 62
     7
100
AcDbMText
 10
382.049669048483
 20
14.61190511618728
 30
0.0
 40
2.5
 41
0.0
 71
     1
 72
     1
  1
\fArial|b0|i1;1 / 1 
  7
textstyle16
 73
     1
 44
1.0
  0
MTEXT
  5
35A
330
4E4
100
AcDbEntity
  8
Symbols(PEC)
 62
     7
100
AcDbMText
 10
344.6130111452626
 20
16.99799708436747
 30
0.0
 40
3.499999940395355
 41
0.0
 71
     3
 72
     1
  1
\fArial|b0|i1;\H3.5000;-
  7
textstyle17
 73
     1
 44
1.0
  0
TEXT
  5
35B
330
4E4
100
AcDbEntity
  8
Symbols(PEC)
 62
     7
100
AcDbText
 10
313.9157453498739
 20
29.11527634021014
 30
0.0
 40
3.499999940395355
  1
PCB right
  7
textstyle18
100
AcDbText
  0
TEXT
  5
35C
330
4E4
100
AcDbEntity
  8
Symbols(PEC)
 62
     7
100
AcDbText
 10
314.2791991219735
 20
41.71272340954973
 30
0.0
 40
3.499999940395355
  1

  7
textstyle19
 11
314.2791991219735
 21
43.46272337974741
 31
0.0
100
AcDbText
 73
     2
  0
TEXT
  5
35D
330
4E4
100
AcDbEntity
  8
Symbols(PEC)
 62
     7
100
AcDbText
 10
403.1733732913727
 20
12.11190510163536
 30
0.0
 40
2.5
  1
A4
  7
textstyle20
100
AcDbText
  0
TEXT
  5
35E
330
4E4
100
AcDbEntity
  8
Symbols(PEC)
 62
     7
100
AcDbText
 10
251.7928541534379
 20
52.07953494242403
 30
0.0
 40
2.5
  1

  7
textstyle21
 11
251.7928541534379
 21
54.57953494242403
 31
0.0
100
AcDbText
 73
     3
  0
TEXT
  5
35F
330
4E4
100
AcDbEntity
  8
Symbols(PEC)
 62
     7
100
AcDbText
 10
270.6634790299459
 20
45.26999945365707
 30
0.0
 40
2.5
  1

  7
textstyle22
 11
270.6634790299459
 21
47.76999945365707
 31
0.0
100
AcDbText
 73
     3
  0
TEXT
  5
360
330
4E4
100
AcDbEntity
  8
Symbols(PEC)
 62
     7
100
AcDbText
 10
239.7439152518434
 20
45.18473340884336
 30
0.0
 40
2.5
  1
N/A
  7
textstyle23
100
AcDbText
  0
TEXT
  5
361
330
4E4
100
AcDbEntity
  8
Symbols(PEC)
 62
     7
100
AcDbText
 10
240.0849793728907
 20
38.64286650509168
 30
0.0
 40
2.5
  1

  7
textstyle24
 11
240.0849793728907
 21
41.14286650509168
 31
0.0
100
AcDbText
 73
     3
  0
TEXT
  5
362
330
4E4
100
AcDbEntity
  8
Symbols(PEC)
 62
     7
100
AcDbText
 10
240.0849793728907
 20
31.98096345088662
 30
0.0
 40
2.5
  1

  7
textstyle25
 11
240.0849793728907
 21
34.48096345088662
 31
0.0
100
AcDbText
 73
     3
  0
TEXT
  5
363
330
4E4
100
AcDbEntity
  8
Symbols(PEC)
 62
     7
100
AcDbText
 10
240.0849793728907
 20
25.24840598378434
 30
0.0
 40
2.5
  1
ABS Plastic
  7
textstyle26
100
AcDbText
  0
TEXT
  5
364
330
4E4
100
AcDbEntity
  8
Symbols(PEC)
 62
     7
100
AcDbText
 10
239.5324554967942
 20
18.84563377270298
 30
0.0
 40
2.5
  1
volgyia
  7
textstyle27
100
AcDbText
  0
TEXT
  5
365
330
4E4
100
AcDbEntity
  8
Symbols(PEC)
 62
     7
100
AcDbText
 10
279.8364569296543
 20
18.82516992544015
 30
0.0
 40
2.5
  1
1:1
  7
textstyle28
100
AcDbText
  0
TEXT
  5
366
330
4E4
100
AcDbEntity
  8
Symbols(PEC)
 62
     7
100
AcDbText
 10
240.0849793728907
 20
12.05149084083944
 30
0.0
 40
2.5
  1

  7
textstyle29
 11
240.0849793728907
 21
14.55149084083944
 31
0.0
100
AcDbText
 73
     3
  0
TEXT
  5
367
330
4E4
100
AcDbEntity
  8
Symbols(PEC)
 62
     7
100
AcDbText
 10
344.5801136111449
 20
11.45257958043721
 30
0.0
 40
3.499999940395355
  1
20130422
  7
textstyle30
100
AcDbText
  0
ENDBLK
  5
4E6
330
4E4
100
AcDbEntity
  8
0
100
AcDbBlockEnd
  0
BLOCK
  5
4E8
330
4E7
100
AcDbEntity
  8
0
100
AcDbBlockBegin
  2
Filled-1
 70
     0
 10
0.0
 20
0.0
 30
0.0
  3
Filled-1
  1

  0
LINE
  5
368
330
4E7
100
AcDbEntity
  8
0
 62
     0
100
AcDbLine
 10
-1.0
 20
0.0
 30
0.0
 11
0.0
 21
0.0
 31
0.0
  0
LWPOLYLINE
  5
369
330
4E7
100
AcDbEntity
  8
0
 62
     0
100
AcDbPolyline
 90
        4
 70
     0
 43
0.0
 10
-1.0
 20
-0.125
 10
0.0
 20
0.0
 10
-1.0
 20
0.125
 10
-1.0
 20
-0.125
  0
SOLID
  5
36A
330
4E7
100
AcDbEntity
  8
0
 62
     0
100
AcDbTrace
 10
-1.0
 20
-0.125
 30
0.0
 11
0.0
 21
0.0
 31
0.0
 12
-1.0
 22
0.125
 32
0.0
 13
-1.0
 23
-0.125
 33
0.0
  0
LINE
  5
36B
330
4E7
100
AcDbEntity
  8
0
 62
     0
100
AcDbLine
 10
-1.0
 20
-0.125
 30
0.0
 11
0.0
 21
0.0
 31
0.0
  0
LINE
  5
36C
330
4E7
100
AcDbEntity
  8
0
 62
     0
100
AcDbLine
 10
0.0
 20
0.0
 30
0.0
 11
-1.0
 21
0.125
 31
0.0
  0
LINE
  5
36D
330
4E7
100
AcDbEntity
  8
0
 62
     0
100
AcDbLine
 10
-1.0
 20
0.125
 30
0.0
 11
-1.0
 21
-0.125
 31
0.0
  0
ENDBLK
  5
4E9
330
4E7
100
AcDbEntity
  8
0
100
AcDbBlockEnd
  0
BLOCK
  5
4EB
330
4EA
100
AcDbEntity
  8
0
100
AcDbBlockBegin
  2
_Open
 70
     0
 10
0.0
 20
0.0
 30
0.0
  3
_Open
  1

  0
LINE
  5
36E
330
4EA
100
AcDbEntity
  8
0
  6
ByBlock
 62
     0
370
    -2
100
AcDbLine
 10
-1.0
 20
0.1666666666666666
 30
0.0
 11
0.0
 21
0.0
 31
0.0
  0
LINE
  5
36F
330
4EA
100
AcDbEntity
  8
0
  6
ByBlock
 62
     0
370
    -2
100
AcDbLine
 10
-1.0
 20
-0.1666666666666666
 30
0.0
 11
0.0
 21
0.0
 31
0.0
  0
LINE
  5
370
330
4EA
100
AcDbEntity
  8
0
  6
ByBlock
 62
     0
370
    -2
100
AcDbLine
 10
0.0
 20
0.0
 30
0.0
 11
-1.0
 21
0.0
 31
0.0
  0
ENDBLK
  5
4EC
330
4EA
100
AcDbEntity
  8
0
100
AcDbBlockEnd
  0
ENDSEC
  0
SECTION
  2
ENTITIES
  0
LINE
  5
377
330
488
100
AcDbEntity
  8
Visible Edges(PEC)
100
AcDbLine
 10
77.62145081770905
 20
227.1816862795778
 30
0.0
 11
81.56068182975793
 21
226.4870935689101
 31
0.0
  0
LINE
  5
378
330
488
100
AcDbEntity
  8
Visible Edges(PEC)
100
AcDbLine
 10
81.56068182975793
 20
226.4870935689101
 30
0.0
 11
79.54636296882148
 21
215.0633236339685
 31
0.0
  0
LINE
  5
379
330
488
100
AcDbEntity
  8
Visible Edges(PEC)
100
AcDbLine
 10
79.54636296882148
 20
215.0633236339685
 30
0.0
 11
75.60713195677265
 21
215.7579163446362
 31
0.0
  0
CIRCLE
  5
37A
330
488
100
AcDbEntity
  8
Visible Edges(PEC)
100
AcDbCircle
 10
100.2350447339495
 20
210.9778075687951
 30
0.0
 40
2.0
  0
CIRCLE
  5
37B
330
488
100
AcDbEntity
  8
Visible Edges(PEC)
100
AcDbCircle
 10
85.99551633656559
 20
224.9751825434269
 30
0.0
 40
1.6
  0
CIRCLE
  5
37C
330
488
100
AcDbEntity
  8
Visible Edges(PEC)
100
AcDbCircle
 10
84.231219787791
 20
214.9693596019473
 30
0.0
 40
1.6
  0
CIRCLE
  5
37D
330
488
100
AcDbEntity
  8
Visible Edges(PEC)
100
AcDbCircle
 10
100.5479160146265
 20
223.4618143283795
 30
0.0
 40
1.1
  0
CIRCLE
  5
37E
330
488
100
AcDbEntity
  8
Visible Edges(PEC)
100
AcDbCircle
 10
51.78504473394959
 20
107.577807568795
 30
0.0
 40
0.7
  0
CIRCLE
  5
37F
330
488
100
AcDbEntity
  8
Visible Edges(PEC)
100
AcDbCircle
 10
67.8850447339496
 20
107.577807568795
 30
0.0
 40
0.7
  0
CIRCLE
  5
380
330
488
100
AcDbEntity
  8
Visible Edges(PEC)
100
AcDbCircle
 10
60.5850447339496
 20
107.577807568795
 30
0.0
 40
0.7
  0
ARC
  5
381
330
488
100
AcDbEntity
  8
Visible Edges(PEC)
100
AcDbCircle
 10
102.1809849560438
 20
213.9553679262715
 30
0.0
 40
0.3999999999999568
100
AcDbArc
 50
85.34000000000412
 51
265.3400000000042
  0
LINE
  5
382
330
488
100
AcDbEntity
  8
Visible Edges(PEC)
100
AcDbLine
 10
102.2134820378697
 20
214.3540456653951
 30
0.0
 11
103.110506950898
 21
214.2809272312869
 31
0.0
  0
ARC
  5
383
330
488
100
AcDbEntity
  8
Visible Edges(PEC)
100
AcDbCircle
 10
103.0780098690722
 20
213.8822494921632
 30
0.0
 40
0.3999999999999759
100
AcDbArc
 50
265.3400000000019
 51
85.34000000000201
  0
LINE
  5
384
330
488
100
AcDbEntity
  8
Visible Edges(PEC)
100
AcDbLine
 10
103.0455127872463
 20
213.4835717530394
 30
0.0
 11
102.1484878742179
 21
213.5566901871477
 31
0.0
  0
LINE
  5
385
330
488
100
AcDbEntity
  8
Visible Edges(PEC)
100
AcDbLine
 10
102.8065537811919
 20
221.6299144044031
 30
0.0
 11
103.7035786942203
 21
221.5567959702949
 31
0.0
  0
ARC
  5
386
330
488
100
AcDbEntity
  8
Visible Edges(PEC)
100
AcDbCircle
 10
103.6710816123944
 20
221.1581182311711
 30
0.0
 40
0.3999999999999759
100
AcDbArc
 50
265.3400000000019
 51
85.34000000000201
  0
LINE
  5
387
330
488
100
AcDbEntity
  8
Visible Edges(PEC)
100
AcDbLine
 10
103.6385845305685
 20
220.7594404920474
 30
0.0
 11
102.7415596175401
 21
220.8325589261557
 31
0.0
  0
ARC
  5
388
330
488
100
AcDbEntity
  8
Visible Edges(PEC)
100
AcDbCircle
 10
102.774056699366
 20
221.2312366652794
 30
0.0
 40
0.3999999999999568
100
AcDbArc
 50
85.34000000000412
 51
265.3400000000042
  0
ARC
  5
389
330
488
100
AcDbEntity
  8
Visible Edges(PEC)
100
AcDbCircle
 10
97.49157665597671
 20
221.6618229994722
 30
0.0
 40
0.3999999999999568
100
AcDbArc
 50
85.34000000000412
 51
265.3400000000042
  0
LINE
  5
38A
330
488
100
AcDbEntity
  8
Visible Edges(PEC)
100
AcDbLine
 10
97.52407373780265
 20
222.0605007385959
 30
0.0
 11
98.421098650831
 21
221.9873823044877
 31
0.0
  0
ARC
  5
38B
330
488
100
AcDbEntity
  8
Visible Edges(PEC)
100
AcDbCircle
 10
98.38860156900515
 20
221.5887045653639
 30
0.0
 40
0.3999999999999759
100
AcDbArc
 50
265.3400000000019
 51
85.34000000000201
  0
LINE
  5
38C
330
488
100
AcDbEntity
  8
Visible Edges(PEC)
100
AcDbLine
 10
98.35610448717924
 20
221.1900268262402
 30
0.0
 11
97.45907957415086
 21
221.2631452603485
 31
0.0
  0
ARC
  5
38D
330
488
100
AcDbEntity
  8
Visible Edges(PEC)
100
AcDbCircle
 10
96.89850491265437
 20
214.3859542604644
 30
0.0
 40
0.3999999999999568
100
AcDbArc
 50
85.34000000000412
 51
265.3400000000042
  0
LINE
  5
38E
330
488
100
AcDbEntity
  8
Visible Edges(PEC)
100
AcDbLine
 10
96.93100199448028
 20
214.7846319995881
 30
0.0
 11
97.82802690750864
 21
214.7115135654798
 31
0.0
  0
ARC
  5
38F
330
488
100
AcDbEntity
  8
Visible Edges(PEC)
100
AcDbCircle
 10
97.79552982568278
 20
214.3128358263561
 30
0.0
 40
0.3999999999999759
100
AcDbArc
 50
265.3400000000019
 51
85.34000000000201
  0
LINE
  5
390
330
488
100
AcDbEntity
  8
Visible Edges(PEC)
100
AcDbLine
 10
97.76303274385687
 20
213.9141580872324
 30
0.0
 11
96.86600783082852
 21
213.9872765213406
 31
0.0
  0
LINE
  5
391
330
488
100
AcDbEntity
  8
Visible Edges(PEC)
100
AcDbLine
 10
80.43966921200735
 20
214.1112745312377
 30
0.0
 11
81.52295774032078
 21
213.9202615358041
 31
0.0
  0
ARC
  5
392
330
488
100
AcDbEntity
  8
Visible Edges(PEC)
100
AcDbCircle
 10
81.47086328702068
 20
213.6248192099004
 30
0.0
 40
0.3000000000000196
100
AcDbArc
 50
259.9999999999966
 51
79.99999999999658
  0
LINE
  5
393
330
488
100
AcDbEntity
  8
Visible Edges(PEC)
100
AcDbLine
 10
81.4187688337206
 20
213.3293768839968
 30
0.0
 11
80.33548030540719
 21
213.5203898794303
 31
0.0
  0
ARC
  5
394
330
488
100
AcDbEntity
  8
Visible Edges(PEC)
100
AcDbCircle
 10
80.38757475870726
 20
213.815832205334
 30
0.0
 40
0.3000000000000166
100
AcDbArc
 50
79.99999999999996
 51
260.0
  0
LINE
  5
395
330
488
100
AcDbEntity
  8
Visible Edges(PEC)
100
AcDbLine
 10
82.82216415779386
 20
227.6230748026057
 30
0.0
 11
83.90545268610727
 21
227.432061807172
 31
0.0
  0
ARC
  5
396
330
488
100
AcDbEntity
  8
Visible Edges(PEC)
100
AcDbCircle
 10
83.85335823280717
 20
227.1366194812684
 30
0.0
 40
0.3000000000000196
100
AcDbArc
 50
259.9999999999966
 51
79.99999999999658
  0
LINE
  5
397
330
488
100
AcDbEntity
  8
Visible Edges(PEC)
100
AcDbLine
 10
83.8012637795071
 20
226.8411771553648
 30
0.0
 11
82.71797525119366
 21
227.0321901507983
 31
0.0
  0
ARC
  5
398
330
488
100
AcDbEntity
  8
Visible Edges(PEC)
100
AcDbCircle
 10
82.77006970449376
 20
227.327632476702
 30
0.0
 40
0.2999999999999991
100
AcDbArc
 50
79.99999999999996
 51
260.0
  0
CIRCLE
  5
399
330
488
100
AcDbEntity
  8
Visible Edges(PEC)
100
AcDbCircle
 10
41.03504473394956
 20
115.8178075687951
 30
0.0
 40
0.5
  0
CIRCLE
  5
39A
330
488
100
AcDbEntity
  8
Visible Edges(PEC)
100
AcDbCircle
 10
41.03504473394956
 20
118.3578075687951
 30
0.0
 40
0.5
  0
CIRCLE
  5
39B
330
488
100
AcDbEntity
  8
Visible Edges(PEC)
100
AcDbCircle
 10
41.03504473394956
 20
120.897807568795
 30
0.0
 40
0.5
  0
CIRCLE
  5
39C
330
488
100
AcDbEntity
  8
Visible Edges(PEC)
100
AcDbCircle
 10
41.03504473394956
 20
123.437807568795
 30
0.0
 40
0.5
  0
CIRCLE
  5
39D
330
488
100
AcDbEntity
  8
Visible Edges(PEC)
100
AcDbCircle
 10
99.77911666943658
 20
219.5690591124511
 30
0.0
 40
0.4500000000000001
  0
CIRCLE
  5
39E
330
488
100
AcDbEntity
  8
Visible Edges(PEC)
100
AcDbCircle
 10
99.49476720346011
 20
216.0806288951185
 30
0.0
 40
0.4500000000000001
  0
CIRCLE
  5
39F
330
488
100
AcDbEntity
  8
Visible Edges(PEC)
100
AcDbCircle
 10
91.70511458102185
 20
220.7877306965708
 30
0.0
 40
0.4500000000000001
  0
CIRCLE
  5
3A0
330
488
100
AcDbEntity
  8
Visible Edges(PEC)
100
AcDbCircle
 10
91.26404044382821
 20
218.2862749612009
 30
0.0
 40
0.4500000000000001
  0
CIRCLE
  5
3A1
330
488
100
AcDbEntity
  8
Visible Edges(PEC)
100
AcDbCircle
 10
93.98860657633413
 20
219.110780307643
 30
0.0
 40
0.4500000000000001
  0
CIRCLE
  5
3A2
330
488
100
AcDbEntity
  8
Visible Edges(PEC)
100
AcDbCircle
 10
93.5475324391405
 20
216.6093245722731
 30
0.0
 40
0.4500000000000001
  0
LINE
  5
3A3
330
488
100
AcDbEntity
  8
Visible Edges(PEC)
100
AcDbLine
 10
78.00868625390629
 20
229.3778075687951
 30
0.0
 11
77.62145081770905
 21
227.1816862795778
 31
0.0
  0
LINE
  5
3A4
330
488
100
AcDbEntity
  8
Visible Edges(PEC)
100
AcDbLine
 10
75.60713195677265
 20
215.7579163446362
 30
0.0
 11
74.35871775324111
 21
208.6778075687951
 31
0.0
  0
LINE
  5
3A5
330
488
100
AcDbEntity
  8
Visible Edges(PEC)
100
AcDbLine
 10
49.73504473394959
 20
110.6778075687951
 30
0.0
 11
49.73504473394959
 21
104.4778075687951
 31
0.0
  0
LINE
  5
3A6
330
488
100
AcDbEntity
  8
Visible Edges(PEC)
100
AcDbLine
 10
49.73504473394959
 20
104.4778075687951
 30
0.0
 11
69.93504473394958
 21
104.4778075687951
 31
0.0
  0
LINE
  5
3A7
330
488
100
AcDbEntity
  8
Visible Edges(PEC)
100
AcDbLine
 10
69.93504473394958
 20
104.4778075687951
 30
0.0
 11
69.93504473394958
 21
110.6778075687951
 31
0.0
  0
LINE
  5
3A8
330
488
100
AcDbEntity
  8
Visible Edges(PEC)
100
AcDbLine
 10
103.7668426206797
 20
208.177807568795
 30
0.0
 11
105.1187598116843
 21
224.7632749064482
 31
0.0
  0
LINE
  5
3A9
330
488
100
AcDbEntity
  8
Visible Edges(PEC)
100
AcDbLine
 10
78.00868625390629
 20
229.3778075687951
 30
0.0
 11
105.1187598116843
 21
224.7632749064482
 31
0.0
  0
CIRCLE
  5
3AA
330
488
100
AcDbEntity
  8
Visible Edges(PEC)
100
AcDbCircle
 10
62.23504473394953
 20
118.1778075687952
 30
0.0
 40
0.7500000000000001
  0
CIRCLE
  5
3AB
330
488
100
AcDbEntity
  8
Visible Edges(PEC)
100
AcDbCircle
 10
54.73504473394953
 20
115.9278075687952
 30
0.0
 40
0.7500000000000001
  0
CIRCLE
  5
3AC
330
488
100
AcDbEntity
  8
Visible Edges(PEC)
100
AcDbCircle
 10
165.5350447339495
 20
191.9278075687952
 30
0.0
 40
0.7500000000000001
  0
CIRCLE
  5
3AD
330
488
100
AcDbEntity
  8
Visible Edges(PEC)
100
AcDbCircle
 10
173.0350447339495
 20
194.1778075687952
 30
0.0
 40
0.7500000000000001
  0
CIRCLE
  5
3AE
330
488
100
AcDbEntity
  8
Visible Edges(PEC)
100
AcDbCircle
 10
163.2850447339495
 20
153.9278075687952
 30
0.0
 40
0.7500000000000001
  0
CIRCLE
  5
3AF
330
488
100
AcDbEntity
  8
Visible Edges(PEC)
100
AcDbCircle
 10
170.7850447339495
 20
156.1778075687952
 30
0.0
 40
0.7500000000000001
  0
CIRCLE
  5
3B0
330
488
100
AcDbEntity
  8
Visible Edges(PEC)
100
AcDbCircle
 10
158.7850447339495
 20
134.9278075687952
 30
0.0
 40
0.7500000000000001
  0
CIRCLE
  5
3B1
330
488
100
AcDbEntity
  8
Visible Edges(PEC)
100
AcDbCircle
 10
166.2850447339495
 20
137.1778075687952
 30
0.0
 40
0.7500000000000001
  0
CIRCLE
  5
3B2
330
488
100
AcDbEntity
  8
Visible Edges(PEC)
100
AcDbCircle
 10
161.0350447339496
 20
115.9278075687952
 30
0.0
 40
0.7500000000000001
  0
CIRCLE
  5
3B3
330
488
100
AcDbEntity
  8
Visible Edges(PEC)
100
AcDbCircle
 10
168.5350447339495
 20
118.1778075687952
 30
0.0
 40
0.7500000000000001
  0
CIRCLE
  5
3B4
330
488
100
AcDbEntity
  8
Visible Edges(PEC)
100
AcDbCircle
 10
138.3850447339495
 20
118.1778075687952
 30
0.0
 40
0.7500000000000001
  0
CIRCLE
  5
3B5
330
488
100
AcDbEntity
  8
Visible Edges(PEC)
100
AcDbCircle
 10
130.8850447339496
 20
115.9278075687952
 30
0.0
 40
0.7500000000000001
  0
CIRCLE
  5
3B6
330
488
100
AcDbEntity
  8
Visible Edges(PEC)
100
AcDbCircle
 10
114.9850447339495
 20
118.1778075687952
 30
0.0
 40
0.7500000000000001
  0
CIRCLE
  5
3B7
330
488
100
AcDbEntity
  8
Visible Edges(PEC)
100
AcDbCircle
 10
107.4850447339495
 20
115.9278075687952
 30
0.0
 40
0.7500000000000001
  0
CIRCLE
  5
3B8
330
488
100
AcDbEntity
  8
Visible Edges(PEC)
100
AcDbCircle
 10
91.58504473394954
 20
118.1778075687952
 30
0.0
 40
0.7500000000000001
  0
CIRCLE
  5
3B9
330
488
100
AcDbEntity
  8
Visible Edges(PEC)
100
AcDbCircle
 10
84.08504473394954
 20
115.9278075687952
 30
0.0
 40
0.7500000000000001
  0
CIRCLE
  5
3BA
330
488
100
AcDbEntity
  8
Visible Edges(PEC)
100
AcDbCircle
 10
128.3350447339495
 20
134.9278075687952
 30
0.0
 40
0.7500000000000001
  0
CIRCLE
  5
3BB
330
488
100
AcDbEntity
  8
Visible Edges(PEC)
100
AcDbCircle
 10
135.8350447339495
 20
137.1778075687952
 30
0.0
 40
0.7500000000000001
  0
CIRCLE
  5
3BC
330
488
100
AcDbEntity
  8
Visible Edges(PEC)
100
AcDbCircle
 10
109.1350447339495
 20
134.9278075687952
 30
0.0
 40
0.7500000000000001
  0
CIRCLE
  5
3BD
330
488
100
AcDbEntity
  8
Visible Edges(PEC)
100
AcDbCircle
 10
116.6350447339495
 20
137.1778075687952
 30
0.0
 40
0.7500000000000001
  0
CIRCLE
  5
3BE
330
488
100
AcDbEntity
  8
Visible Edges(PEC)
100
AcDbCircle
 10
89.93504473394952
 20
134.9278075687952
 30
0.0
 40
0.7500000000000001
  0
CIRCLE
  5
3BF
330
488
100
AcDbEntity
  8
Visible Edges(PEC)
100
AcDbCircle
 10
97.43504473394951
 20
137.1778075687952
 30
0.0
 40
0.7500000000000001
  0
CIRCLE
  5
3C0
330
488
100
AcDbEntity
  8
Visible Edges(PEC)
100
AcDbCircle
 10
70.73504473394955
 20
134.9278075687952
 30
0.0
 40
0.7500000000000001
  0
CIRCLE
  5
3C1
330
488
100
AcDbEntity
  8
Visible Edges(PEC)
100
AcDbCircle
 10
78.23504473394955
 20
137.1778075687952
 30
0.0
 40
0.7500000000000001
  0
CIRCLE
  5
3C2
330
488
100
AcDbEntity
  8
Visible Edges(PEC)
100
AcDbCircle
 10
59.03504473394953
 20
137.1778075687952
 30
0.0
 40
0.7500000000000001
  0
CIRCLE
  5
3C3
330
488
100
AcDbEntity
  8
Visible Edges(PEC)
100
AcDbCircle
 10
51.53504473394953
 20
134.9278075687952
 30
0.0
 40
0.7500000000000001
  0
CIRCLE
  5
3C4
330
488
100
AcDbEntity
  8
Visible Edges(PEC)
100
AcDbCircle
 10
144.9450447339495
 20
156.1778075687952
 30
0.0
 40
0.7500000000000001
  0
CIRCLE
  5
3C5
330
488
100
AcDbEntity
  8
Visible Edges(PEC)
100
AcDbCircle
 10
137.4450447339496
 20
153.9278075687952
 30
0.0
 40
0.7500000000000001
  0
CIRCLE
  5
3C6
330
488
100
AcDbEntity
  8
Visible Edges(PEC)
100
AcDbCircle
 10
125.8550447339495
 20
156.1778075687952
 30
0.0
 40
0.7500000000000001
  0
CIRCLE
  5
3C7
330
488
100
AcDbEntity
  8
Visible Edges(PEC)
100
AcDbCircle
 10
118.3550447339495
 20
153.9278075687952
 30
0.0
 40
0.7500000000000001
  0
CIRCLE
  5
3C8
330
488
100
AcDbEntity
  8
Visible Edges(PEC)
100
AcDbCircle
 10
106.7650447339495
 20
156.1778075687952
 30
0.0
 40
0.7500000000000001
  0
CIRCLE
  5
3C9
330
488
100
AcDbEntity
  8
Visible Edges(PEC)
100
AcDbCircle
 10
99.26504473394957
 20
153.9278075687952
 30
0.0
 40
0.7500000000000001
  0
CIRCLE
  5
3CA
330
488
100
AcDbEntity
  8
Visible Edges(PEC)
100
AcDbCircle
 10
87.67504473394955
 20
156.1778075687952
 30
0.0
 40
0.7500000000000001
  0
CIRCLE
  5
3CB
330
488
100
AcDbEntity
  8
Visible Edges(PEC)
100
AcDbCircle
 10
80.17504473394955
 20
153.9278075687952
 30
0.0
 40
0.7500000000000001
  0
CIRCLE
  5
3CC
330
488
100
AcDbEntity
  8
Visible Edges(PEC)
100
AcDbCircle
 10
68.58504473394957
 20
156.1778075687952
 30
0.0
 40
0.7500000000000001
  0
CIRCLE
  5
3CD
330
488
100
AcDbEntity
  8
Visible Edges(PEC)
100
AcDbCircle
 10
61.08504473394957
 20
153.9278075687952
 30
0.0
 40
0.7500000000000001
  0
CIRCLE
  5
3CE
330
488
100
AcDbEntity
  8
Visible Edges(PEC)
100
AcDbCircle
 10
41.99504473394958
 20
153.9278075687952
 30
0.0
 40
0.7500000000000001
  0
CIRCLE
  5
3CF
330
488
100
AcDbEntity
  8
Visible Edges(PEC)
100
AcDbCircle
 10
49.49504473394958
 20
156.1778075687952
 30
0.0
 40
0.7500000000000001
  0
CIRCLE
  5
3D0
330
488
100
AcDbEntity
  8
Visible Edges(PEC)
100
AcDbCircle
 10
170.0350447339495
 20
172.9278075687952
 30
0.0
 40
0.7500000000000001
  0
CIRCLE
  5
3D1
330
488
100
AcDbEntity
  8
Visible Edges(PEC)
100
AcDbCircle
 10
177.5350447339495
 20
175.1778075687952
 30
0.0
 40
0.7500000000000001
  0
CIRCLE
  5
3D2
330
488
100
AcDbEntity
  8
Visible Edges(PEC)
100
AcDbCircle
 10
151.0350447339495
 20
172.9278075687952
 30
0.0
 40
0.7500000000000001
  0
CIRCLE
  5
3D3
330
488
100
AcDbEntity
  8
Visible Edges(PEC)
100
AcDbCircle
 10
158.5350447339495
 20
175.1778075687952
 30
0.0
 40
0.7500000000000001
  0
CIRCLE
  5
3D4
330
488
100
AcDbEntity
  8
Visible Edges(PEC)
100
AcDbCircle
 10
132.0350447339495
 20
172.9278075687952
 30
0.0
 40
0.7500000000000001
  0
CIRCLE
  5
3D5
330
488
100
AcDbEntity
  8
Visible Edges(PEC)
100
AcDbCircle
 10
139.5350447339495
 20
175.1778075687952
 30
0.0
 40
0.7500000000000001
  0
CIRCLE
  5
3D6
330
488
100
AcDbEntity
  8
Visible Edges(PEC)
100
AcDbCircle
 10
113.0350447339495
 20
172.9278075687952
 30
0.0
 40
0.7500000000000001
  0
CIRCLE
  5
3D7
330
488
100
AcDbEntity
  8
Visible Edges(PEC)
100
AcDbCircle
 10
120.5350447339495
 20
175.1778075687952
 30
0.0
 40
0.7500000000000001
  0
CIRCLE
  5
3D8
330
488
100
AcDbEntity
  8
Visible Edges(PEC)
100
AcDbCircle
 10
94.0350447339495
 20
172.9278075687952
 30
0.0
 40
0.7500000000000001
  0
CIRCLE
  5
3D9
330
488
100
AcDbEntity
  8
Visible Edges(PEC)
100
AcDbCircle
 10
101.5350447339495
 20
175.1778075687952
 30
0.0
 40
0.7500000000000001
  0
CIRCLE
  5
3DA
330
488
100
AcDbEntity
  8
Visible Edges(PEC)
100
AcDbCircle
 10
75.03504473394952
 20
172.9278075687952
 30
0.0
 40
0.7500000000000001
  0
CIRCLE
  5
3DB
330
488
100
AcDbEntity
  8
Visible Edges(PEC)
100
AcDbCircle
 10
82.53504473394952
 20
175.1778075687952
 30
0.0
 40
0.7500000000000001
  0
CIRCLE
  5
3DC
330
488
100
AcDbEntity
  8
Visible Edges(PEC)
100
AcDbCircle
 10
56.03504473394952
 20
172.9278075687952
 30
0.0
 40
0.7500000000000001
  0
CIRCLE
  5
3DD
330
488
100
AcDbEntity
  8
Visible Edges(PEC)
100
AcDbCircle
 10
63.53504473394952
 20
175.1778075687952
 30
0.0
 40
0.7500000000000001
  0
CIRCLE
  5
3DE
330
488
100
AcDbEntity
  8
Visible Edges(PEC)
100
AcDbCircle
 10
37.03504473394953
 20
172.9278075687952
 30
0.0
 40
0.7500000000000001
  0
CIRCLE
  5
3DF
330
488
100
AcDbEntity
  8
Visible Edges(PEC)
100
AcDbCircle
 10
44.53504473394953
 20
175.1778075687952
 30
0.0
 40
0.7500000000000001
  0
CIRCLE
  5
3E0
330
488
100
AcDbEntity
  8
Visible Edges(PEC)
100
AcDbCircle
 10
142.0350447339495
 20
191.9278075687951
 30
0.0
 40
0.7500000000000001
  0
CIRCLE
  5
3E1
330
488
100
AcDbEntity
  8
Visible Edges(PEC)
100
AcDbCircle
 10
149.5350447339495
 20
194.1778075687952
 30
0.0
 40
0.7500000000000001
  0
CIRCLE
  5
3E2
330
488
100
AcDbEntity
  8
Visible Edges(PEC)
100
AcDbCircle
 10
123.0350447339495
 20
191.9278075687951
 30
0.0
 40
0.7500000000000001
  0
CIRCLE
  5
3E3
330
488
100
AcDbEntity
  8
Visible Edges(PEC)
100
AcDbCircle
 10
130.5350447339495
 20
194.1778075687952
 30
0.0
 40
0.7500000000000001
  0
CIRCLE
  5
3E4
330
488
100
AcDbEntity
  8
Visible Edges(PEC)
100
AcDbCircle
 10
104.0350447339495
 20
191.9278075687951
 30
0.0
 40
0.7500000000000001
  0
CIRCLE
  5
3E5
330
488
100
AcDbEntity
  8
Visible Edges(PEC)
100
AcDbCircle
 10
111.5350447339495
 20
194.1778075687952
 30
0.0
 40
0.7500000000000001
  0
CIRCLE
  5
3E6
330
488
100
AcDbEntity
  8
Visible Edges(PEC)
100
AcDbCircle
 10
85.03504473394952
 20
191.9278075687951
 30
0.0
 40
0.7500000000000001
  0
CIRCLE
  5
3E7
330
488
100
AcDbEntity
  8
Visible Edges(PEC)
100
AcDbCircle
 10
92.5350447339495
 20
194.1778075687952
 30
0.0
 40
0.7500000000000001
  0
CIRCLE
  5
3E8
330
488
100
AcDbEntity
  8
Visible Edges(PEC)
100
AcDbCircle
 10
66.03504473394953
 20
191.9278075687951
 30
0.0
 40
0.7500000000000001
  0
CIRCLE
  5
3E9
330
488
100
AcDbEntity
  8
Visible Edges(PEC)
100
AcDbCircle
 10
73.53504473394952
 20
194.1778075687952
 30
0.0
 40
0.7500000000000001
  0
CIRCLE
  5
3EA
330
488
100
AcDbEntity
  8
Visible Edges(PEC)
100
AcDbCircle
 10
47.03504473394953
 20
191.9278075687951
 30
0.0
 40
0.7500000000000001
  0
CIRCLE
  5
3EB
330
488
100
AcDbEntity
  8
Visible Edges(PEC)
100
AcDbCircle
 10
54.53504473394953
 20
194.1778075687952
 30
0.0
 40
0.7500000000000001
  0
LINE
  5
3EC
330
488
100
AcDbEntity
  8
Visible Edges(PEC)
100
AcDbLine
 10
42.83504473394962
 20
196.177807568795
 30
0.0
 11
42.83504473394962
 21
192.177807568795
 31
0.0
  0
LINE
  5
3ED
330
488
100
AcDbEntity
  8
Visible Edges(PEC)
100
AcDbLine
 10
42.83504473394962
 20
192.177807568795
 30
0.0
 11
41.53504473394959
 21
192.177807568795
 31
0.0
  0
LINE
  5
3EE
330
488
100
AcDbEntity
  8
Visible Edges(PEC)
100
AcDbLine
 10
41.53504473394959
 20
196.177807568795
 30
0.0
 11
42.83504473394962
 21
196.177807568795
 31
0.0
  0
LINE
  5
3EF
330
488
100
AcDbEntity
  8
Visible Edges(PEC)
100
AcDbLine
 10
42.83504473394962
 20
204.177807568795
 30
0.0
 11
42.83504473394962
 21
200.1778075687951
 31
0.0
  0
LINE
  5
3F0
330
488
100
AcDbEntity
  8
Visible Edges(PEC)
100
AcDbLine
 10
42.83504473394962
 20
200.1778075687951
 30
0.0
 11
41.53504473394959
 21
200.1778075687951
 31
0.0
  0
LINE
  5
3F1
330
488
100
AcDbEntity
  8
Visible Edges(PEC)
100
AcDbLine
 10
41.53504473394959
 20
204.177807568795
 30
0.0
 11
42.83504473394962
 21
204.177807568795
 31
0.0
  0
LINE
  5
3F2
330
488
100
AcDbEntity
  8
Visible Edges(PEC)
100
AcDbLine
 10
47.4350447339496
 20
146.177807568795
 30
0.0
 11
47.4350447339496
 21
142.177807568795
 31
0.0
  0
LINE
  5
3F3
330
488
100
AcDbEntity
  8
Visible Edges(PEC)
100
AcDbLine
 10
47.4350447339496
 20
142.177807568795
 30
0.0
 11
46.1350447339496
 21
142.177807568795
 31
0.0
  0
LINE
  5
3F4
330
488
100
AcDbEntity
  8
Visible Edges(PEC)
100
AcDbLine
 10
46.1350447339496
 20
146.177807568795
 30
0.0
 11
47.4350447339496
 21
146.177807568795
 31
0.0
  0
LINE
  5
3F5
330
488
100
AcDbEntity
  8
Visible Edges(PEC)
100
AcDbLine
 10
47.4350447339496
 20
139.177807568795
 30
0.0
 11
47.4350447339496
 21
135.177807568795
 31
0.0
  0
LINE
  5
3F6
330
488
100
AcDbEntity
  8
Visible Edges(PEC)
100
AcDbLine
 10
47.4350447339496
 20
135.177807568795
 30
0.0
 11
46.1350447339496
 21
135.177807568795
 31
0.0
  0
LINE
  5
3F7
330
488
100
AcDbEntity
  8
Visible Edges(PEC)
100
AcDbLine
 10
46.1350447339496
 20
139.177807568795
 30
0.0
 11
47.4350447339496
 21
139.177807568795
 31
0.0
  0
LINE
  5
3F8
330
488
100
AcDbEntity
  8
Visible Edges(PEC)
100
AcDbLine
 10
37.9350447339496
 20
158.177807568795
 30
0.0
 11
37.9350447339496
 21
154.177807568795
 31
0.0
  0
LINE
  5
3F9
330
488
100
AcDbEntity
  8
Visible Edges(PEC)
100
AcDbLine
 10
37.9350447339496
 20
154.177807568795
 30
0.0
 11
36.63504473394958
 21
154.177807568795
 31
0.0
  0
LINE
  5
3FA
330
488
100
AcDbEntity
  8
Visible Edges(PEC)
100
AcDbLine
 10
36.63504473394958
 20
158.177807568795
 30
0.0
 11
37.9350447339496
 21
158.177807568795
 31
0.0
  0
LINE
  5
3FB
330
488
100
AcDbEntity
  8
Visible Edges(PEC)
100
AcDbLine
 10
37.9350447339496
 20
165.677807568795
 30
0.0
 11
37.9350447339496
 21
161.677807568795
 31
0.0
  0
LINE
  5
3FC
330
488
100
AcDbEntity
  8
Visible Edges(PEC)
100
AcDbLine
 10
37.9350447339496
 20
161.677807568795
 30
0.0
 11
36.63504473394958
 21
161.677807568795
 31
0.0
  0
LINE
  5
3FD
330
488
100
AcDbEntity
  8
Visible Edges(PEC)
100
AcDbLine
 10
36.63504473394958
 20
165.677807568795
 30
0.0
 11
37.9350447339496
 21
165.677807568795
 31
0.0
  0
LINE
  5
3FE
330
488
100
AcDbEntity
  8
Visible Edges(PEC)
100
AcDbLine
 10
32.9350447339496
 20
177.177807568795
 30
0.0
 11
32.9350447339496
 21
173.177807568795
 31
0.0
  0
LINE
  5
3FF
330
488
100
AcDbEntity
  8
Visible Edges(PEC)
100
AcDbLine
 10
32.9350447339496
 20
173.177807568795
 30
0.0
 11
31.63504473394958
 21
173.177807568795
 31
0.0
  0
LINE
  5
400
330
488
100
AcDbEntity
  8
Visible Edges(PEC)
100
AcDbLine
 10
31.63504473394958
 20
177.177807568795
 30
0.0
 11
32.9350447339496
 21
177.177807568795
 31
0.0
  0
LINE
  5
401
330
488
100
AcDbEntity
  8
Visible Edges(PEC)
100
AcDbLine
 10
32.9350447339496
 20
184.177807568795
 30
0.0
 11
32.9350447339496
 21
180.177807568795
 31
0.0
  0
LINE
  5
402
330
488
100
AcDbEntity
  8
Visible Edges(PEC)
100
AcDbLine
 10
32.9350447339496
 20
180.177807568795
 30
0.0
 11
31.63504473394958
 21
180.177807568795
 31
0.0
  0
LINE
  5
403
330
488
100
AcDbEntity
  8
Visible Edges(PEC)
100
AcDbLine
 10
31.63504473394958
 20
184.177807568795
 30
0.0
 11
32.9350447339496
 21
184.177807568795
 31
0.0
  0
LINE
  5
404
330
488
100
AcDbEntity
  8
Visible Edges(PEC)
100
AcDbLine
 10
39.23504473394956
 20
110.6778075687951
 30
0.0
 11
49.73504473394959
 21
110.6778075687951
 31
0.0
  0
LINE
  5
405
330
488
100
AcDbEntity
  8
Visible Edges(PEC)
100
AcDbLine
 10
69.93504473394958
 20
110.6778075687951
 30
0.0
 11
184.0350447339496
 21
110.677807568795
 31
0.0
  0
LINE
  5
406
330
488
100
AcDbEntity
  8
Visible Edges(PEC)
100
AcDbLine
 10
44.7350447339496
 20
208.6778075687951
 30
0.0
 11
44.7350447339496
 21
205.377807568795
 31
0.0
  0
LINE
  5
407
330
488
100
AcDbEntity
  8
Visible Edges(PEC)
100
AcDbLine
 10
44.7350447339496
 20
205.377807568795
 30
0.0
 11
41.53504473394959
 21
205.377807568795
 31
0.0
  0
LINE
  5
408
330
488
100
AcDbEntity
  8
Visible Edges(PEC)
100
AcDbLine
 10
74.35871775324111
 20
208.6778075687951
 30
0.0
 11
44.7350447339496
 21
208.6778075687951
 31
0.0
  0
LINE
  5
409
330
488
100
AcDbEntity
  8
Visible Edges(PEC)
100
AcDbLine
 10
54.83504473394957
 20
185.677807568795
 30
0.0
 11
31.63504473394958
 21
185.677807568795
 31
0.0
  0
LINE
  5
40A
330
488
100
AcDbEntity
  8
Visible Edges(PEC)
100
AcDbLine
 10
41.53504473394959
 20
190.677807568795
 30
0.0
 11
54.83504473394957
 21
190.677807568795
 31
0.0
  0
LINE
  5
40B
330
488
100
AcDbEntity
  8
Visible Edges(PEC)
100
AcDbLine
 10
54.83504473394957
 20
190.677807568795
 30
0.0
 11
54.83504473394957
 21
185.677807568795
 31
0.0
  0
LINE
  5
40C
330
488
100
AcDbEntity
  8
Visible Edges(PEC)
100
AcDbLine
 10
184.0350447339496
 20
208.177807568795
 30
0.0
 11
103.7668426206797
 21
208.177807568795
 31
0.0
  0
LINE
  5
40D
330
488
100
AcDbEntity
  8
Visible Edges(PEC)
100
AcDbLine
 10
54.83504473394957
 20
166.677807568795
 30
0.0
 11
36.63504473394958
 21
166.677807568795
 31
0.0
  0
LINE
  5
40E
330
488
100
AcDbEntity
  8
Visible Edges(PEC)
100
AcDbLine
 10
54.83504473394957
 20
171.677807568795
 30
0.0
 11
54.83504473394957
 21
166.677807568795
 31
0.0
  0
LINE
  5
40F
330
488
100
AcDbEntity
  8
Visible Edges(PEC)
100
AcDbLine
 10
31.63504473394958
 20
171.677807568795
 30
0.0
 11
54.83504473394957
 21
171.677807568795
 31
0.0
  0
LINE
  5
410
330
488
100
AcDbEntity
  8
Visible Edges(PEC)
100
AcDbLine
 10
65.3350447339496
 20
128.677807568795
 30
0.0
 11
39.23504473394958
 21
128.677807568795
 31
0.0
  0
LINE
  5
411
330
488
100
AcDbEntity
  8
Visible Edges(PEC)
100
AcDbLine
 10
65.3350447339496
 20
133.677807568795
 30
0.0
 11
65.3350447339496
 21
128.677807568795
 31
0.0
  0
LINE
  5
412
330
488
100
AcDbEntity
  8
Visible Edges(PEC)
100
AcDbLine
 10
46.1350447339496
 20
133.677807568795
 30
0.0
 11
65.3350447339496
 21
133.677807568795
 31
0.0
  0
LINE
  5
413
330
488
100
AcDbEntity
  8
Visible Edges(PEC)
100
AcDbLine
 10
65.33504473394954
 20
147.677807568795
 30
0.0
 11
46.1350447339496
 21
147.677807568795
 31
0.0
  0
LINE
  5
414
330
488
100
AcDbEntity
  8
Visible Edges(PEC)
100
AcDbLine
 10
65.33504473394954
 20
152.677807568795
 30
0.0
 11
65.33504473394954
 21
147.677807568795
 31
0.0
  0
LINE
  5
415
330
488
100
AcDbEntity
  8
Visible Edges(PEC)
100
AcDbLine
 10
36.63504473394951
 20
152.6778075687951
 30
0.0
 11
65.33504473394954
 21
152.677807568795
 31
0.0
  0
LINE
  5
416
330
488
100
AcDbEntity
  8
Visible Edges(PEC)
100
AcDbLine
 10
41.53504473394959
 20
204.177807568795
 30
0.0
 11
41.53504473394959
 21
205.377807568795
 31
0.0
  0
LINE
  5
417
330
488
100
AcDbEntity
  8
Visible Edges(PEC)
100
AcDbLine
 10
41.53504473394959
 20
190.677807568795
 30
0.0
 11
41.53504473394959
 21
192.177807568795
 31
0.0
  0
LINE
  5
418
330
488
100
AcDbEntity
  8
Visible Edges(PEC)
100
AcDbLine
 10
31.63504473394958
 20
184.177807568795
 30
0.0
 11
31.63504473394958
 21
185.677807568795
 31
0.0
  0
LINE
  5
419
330
488
100
AcDbEntity
  8
Visible Edges(PEC)
100
AcDbLine
 10
31.63504473394958
 20
171.677807568795
 30
0.0
 11
31.63504473394958
 21
173.177807568795
 31
0.0
  0
LINE
  5
41A
330
488
100
AcDbEntity
  8
Visible Edges(PEC)
100
AcDbLine
 10
39.23504473394956
 20
110.6778075687951
 30
0.0
 11
39.23504473394958
 21
128.677807568795
 31
0.0
  0
LINE
  5
41B
330
488
100
AcDbEntity
  8
Visible Edges(PEC)
100
AcDbLine
 10
41.53504473394959
 20
196.177807568795
 30
0.0
 11
41.53504473394959
 21
200.1778075687951
 31
0.0
  0
LINE
  5
41C
330
488
100
AcDbEntity
  8
Visible Edges(PEC)
100
AcDbLine
 10
31.63504473394958
 20
177.177807568795
 30
0.0
 11
31.63504473394958
 21
180.177807568795
 31
0.0
  0
LINE
  5
41D
330
488
100
AcDbEntity
  8
Visible Edges(PEC)
100
AcDbLine
 10
36.63504473394958
 20
165.677807568795
 30
0.0
 11
36.63504473394958
 21
166.677807568795
 31
0.0
  0
LINE
  5
41E
330
488
100
AcDbEntity
  8
Visible Edges(PEC)
100
AcDbLine
 10
36.63504473394958
 20
158.177807568795
 30
0.0
 11
36.63504473394958
 21
161.677807568795
 31
0.0
  0
LINE
  5
41F
330
488
100
AcDbEntity
  8
Visible Edges(PEC)
100
AcDbLine
 10
36.63504473394951
 20
152.6778075687951
 30
0.0
 11
36.63504473394958
 21
154.177807568795
 31
0.0
  0
LINE
  5
420
330
488
100
AcDbEntity
  8
Visible Edges(PEC)
100
AcDbLine
 10
46.1350447339496
 20
146.177807568795
 30
0.0
 11
46.1350447339496
 21
147.677807568795
 31
0.0
  0
LINE
  5
421
330
488
100
AcDbEntity
  8
Visible Edges(PEC)
100
AcDbLine
 10
46.1350447339496
 20
139.177807568795
 30
0.0
 11
46.1350447339496
 21
142.177807568795
 31
0.0
  0
LINE
  5
422
330
488
100
AcDbEntity
  8
Visible Edges(PEC)
100
AcDbLine
 10
46.1350447339496
 20
133.677807568795
 30
0.0
 11
46.1350447339496
 21
135.177807568795
 31
0.0
  0
LINE
  5
423
330
488
100
AcDbEntity
  8
Visible Edges(PEC)
100
AcDbLine
 10
184.0350447339496
 20
208.177807568795
 30
0.0
 11
184.0350447339496
 21
110.677807568795
 31
0.0
  0
CIRCLE
  5
424
330
488
100
AcDbEntity
  8
Visible Edges(PEC)
100
AcDbCircle
 10
68.5350447339496
 20
187.677807568795
 30
0.0
 40
2.1
  0
CIRCLE
  5
425
330
488
100
AcDbEntity
  8
Visible Edges(PEC)
100
AcDbCircle
 10
83.3350447339496
 20
149.6778075687949
 30
0.0
 40
2.1
  0
CIRCLE
  5
426
330
488
100
AcDbEntity
  8
Visible Edges(PEC)
100
AcDbCircle
 10
121.7350447339496
 20
149.6778075687949
 30
0.0
 40
2.1
  0
CIRCLE
  5
427
330
488
100
AcDbEntity
  8
Visible Edges(PEC)
100
AcDbCircle
 10
179.0350447339496
 20
159.677807568795
 30
0.0
 40
2.1
  0
CIRCLE
  5
428
330
488
100
AcDbEntity
  8
Visible Edges(PEC)
100
AcDbCircle
 10
135.5350447339495
 20
188.677807568795
 30
0.0
 40
2.1
  0
CIRCLE
  5
429
330
488
100
AcDbEntity
  8
Visible Edges(PEC)
100
AcDbCircle
 10
164.0350447339496
 20
121.677807568795
 30
0.0
 40
2.0
  0
CIRCLE
  5
42A
330
488
100
AcDbEntity
  8
Visible Edges(PEC)
100
AcDbCircle
 10
133.8850447339496
 20
121.677807568795
 30
0.0
 40
2.0
  0
CIRCLE
  5
42B
330
488
100
AcDbEntity
  8
Visible Edges(PEC)
100
AcDbCircle
 10
131.3350447339496
 20
140.677807568795
 30
0.0
 40
2.0
  0
CIRCLE
  5
42C
330
488
100
AcDbEntity
  8
Visible Edges(PEC)
100
AcDbCircle
 10
161.7850447339496
 20
140.677807568795
 30
0.0
 40
2.0
  0
CIRCLE
  5
42D
330
488
100
AcDbEntity
  8
Visible Edges(PEC)
100
AcDbCircle
 10
166.2850447339496
 20
159.677807568795
 30
0.0
 40
2.0
  0
CIRCLE
  5
42E
330
488
100
AcDbEntity
  8
Visible Edges(PEC)
100
AcDbCircle
 10
140.4450447339495
 20
159.677807568795
 30
0.0
 40
2.0
  0
CIRCLE
  5
42F
330
488
100
AcDbEntity
  8
Visible Edges(PEC)
100
AcDbCircle
 10
173.0350447339495
 20
178.677807568795
 30
0.0
 40
2.0
  0
CIRCLE
  5
430
330
488
100
AcDbEntity
  8
Visible Edges(PEC)
100
AcDbCircle
 10
168.5350447339495
 20
197.6778075687951
 30
0.0
 40
2.0
  0
CIRCLE
  5
431
330
488
100
AcDbEntity
  8
Visible Edges(PEC)
100
AcDbCircle
 10
145.0350447339495
 20
197.677807568795
 30
0.0
 40
2.0
  0
CIRCLE
  5
432
330
488
100
AcDbEntity
  8
Visible Edges(PEC)
100
AcDbCircle
 10
126.0350447339496
 20
197.677807568795
 30
0.0
 40
2.0
  0
CIRCLE
  5
433
330
488
100
AcDbEntity
  8
Visible Edges(PEC)
100
AcDbCircle
 10
107.0350447339496
 20
197.677807568795
 30
0.0
 40
2.0
  0
CIRCLE
  5
434
330
488
100
AcDbEntity
  8
Visible Edges(PEC)
100
AcDbCircle
 10
88.03504473394959
 20
197.677807568795
 30
0.0
 40
2.0
  0
CIRCLE
  5
435
330
488
100
AcDbEntity
  8
Visible Edges(PEC)
100
AcDbCircle
 10
69.03504473394959
 20
197.677807568795
 30
0.0
 40
2.0
  0
CIRCLE
  5
436
330
488
100
AcDbEntity
  8
Visible Edges(PEC)
100
AcDbCircle
 10
50.03504473394958
 20
197.677807568795
 30
0.0
 40
2.0
  0
CIRCLE
  5
437
330
488
100
AcDbEntity
  8
Visible Edges(PEC)
100
AcDbCircle
 10
154.0350447339496
 20
178.677807568795
 30
0.0
 40
2.0
  0
CIRCLE
  5
438
330
488
100
AcDbEntity
  8
Visible Edges(PEC)
100
AcDbCircle
 10
135.0350447339496
 20
178.677807568795
 30
0.0
 40
2.0
  0
CIRCLE
  5
439
330
488
100
AcDbEntity
  8
Visible Edges(PEC)
100
AcDbCircle
 10
116.0350447339496
 20
178.677807568795
 30
0.0
 40
2.0
  0
CIRCLE
  5
43A
330
488
100
AcDbEntity
  8
Visible Edges(PEC)
100
AcDbCircle
 10
97.03504473394959
 20
178.677807568795
 30
0.0
 40
2.0
  0
CIRCLE
  5
43B
330
488
100
AcDbEntity
  8
Visible Edges(PEC)
100
AcDbCircle
 10
78.03504473394959
 20
178.677807568795
 30
0.0
 40
2.0
  0
CIRCLE
  5
43C
330
488
100
AcDbEntity
  8
Visible Edges(PEC)
100
AcDbCircle
 10
59.0350447339496
 20
178.677807568795
 30
0.0
 40
2.0
  0
CIRCLE
  5
43D
330
488
100
AcDbEntity
  8
Visible Edges(PEC)
100
AcDbCircle
 10
40.03504473394958
 20
178.677807568795
 30
0.0
 40
2.0
  0
CIRCLE
  5
43E
330
488
100
AcDbEntity
  8
Visible Edges(PEC)
100
AcDbCircle
 10
121.3550447339496
 20
159.677807568795
 30
0.0
 40
2.0
  0
CIRCLE
  5
43F
330
488
100
AcDbEntity
  8
Visible Edges(PEC)
100
AcDbCircle
 10
102.2650447339495
 20
159.677807568795
 30
0.0
 40
2.0
  0
CIRCLE
  5
440
330
488
100
AcDbEntity
  8
Visible Edges(PEC)
100
AcDbCircle
 10
83.1750447339496
 20
159.677807568795
 30
0.0
 40
2.0
  0
CIRCLE
  5
441
330
488
100
AcDbEntity
  8
Visible Edges(PEC)
100
AcDbCircle
 10
64.08504473394962
 20
159.677807568795
 30
0.0
 40
2.0
  0
CIRCLE
  5
442
330
488
100
AcDbEntity
  8
Visible Edges(PEC)
100
AcDbCircle
 10
44.99504473394964
 20
159.677807568795
 30
0.0
 40
2.0
  0
CIRCLE
  5
443
330
488
100
AcDbEntity
  8
Visible Edges(PEC)
100
AcDbCircle
 10
112.1350447339496
 20
140.677807568795
 30
0.0
 40
2.0
  0
CIRCLE
  5
444
330
488
100
AcDbEntity
  8
Visible Edges(PEC)
100
AcDbCircle
 10
92.9350447339496
 20
140.677807568795
 30
0.0
 40
2.0
  0
CIRCLE
  5
445
330
488
100
AcDbEntity
  8
Visible Edges(PEC)
100
AcDbCircle
 10
73.7350447339496
 20
140.677807568795
 30
0.0
 40
2.0
  0
CIRCLE
  5
446
330
488
100
AcDbEntity
  8
Visible Edges(PEC)
100
AcDbCircle
 10
54.5350447339496
 20
140.677807568795
 30
0.0
 40
2.0
  0
CIRCLE
  5
447
330
488
100
AcDbEntity
  8
Visible Edges(PEC)
100
AcDbCircle
 10
57.73504473394959
 20
121.677807568795
 30
0.0
 40
2.0
  0
CIRCLE
  5
448
330
488
100
AcDbEntity
  8
Visible Edges(PEC)
100
AcDbCircle
 10
110.4850447339496
 20
121.677807568795
 30
0.0
 40
2.0
  0
CIRCLE
  5
449
330
488
100
AcDbEntity
  8
Visible Edges(PEC)
100
AcDbCircle
 10
87.08504473394957
 20
121.677807568795
 30
0.0
 40
2.0
  0
ARC
  5
44A
330
488
100
AcDbEntity
  8
Visible Edges(PEC)
100
AcDbCircle
 10
148.0462399085531
 20
136.7117696205215
 30
0.0
 40
2.371708245126285
100
AcDbArc
 50
341.565051177078
 51
198.434948822922
  0
LINE
  5
44B
330
488
100
AcDbEntity
  8
Visible Edges(PEC)
100
AcDbLine
 10
145.7962399085531
 20
135.9617696205215
 30
0.0
 11
147.2962399085531
 21
132.9617696205215
 31
0.0
  0
LINE
  5
44C
330
488
100
AcDbEntity
  8
Visible Edges(PEC)
100
AcDbLine
 10
150.2962399085531
 20
135.9617696205215
 30
0.0
 11
148.7962399085531
 21
132.9617696205215
 31
0.0
  0
ARC
  5
44D
330
488
100
AcDbEntity
  8
Visible Edges(PEC)
100
AcDbCircle
 10
148.0462399085531
 20
133.3617696205214
 30
0.0
 40
0.8499999999999893
100
AcDbArc
 50
208.0724869358516
 51
331.9275130641484
  0
ARC
  5
44E
330
488
100
AcDbEntity
  8
Visible Edges(PEC)
100
AcDbCircle
 10
148.0
 20
123.3717082451263
 30
0.0
 40
2.371708245126285
100
AcDbArc
 50
161.565051177078
 51
18.43494882292201
  0
LINE
  5
44F
330
488
100
AcDbEntity
  8
Visible Edges(PEC)
100
AcDbLine
 10
150.25
 20
124.1217082451263
 30
0.0
 11
148.75
 21
127.1217082451263
 31
0.0
  0
LINE
  5
450
330
488
100
AcDbEntity
  8
Visible Edges(PEC)
100
AcDbLine
 10
145.75
 20
124.1217082451263
 30
0.0
 11
147.25
 21
127.1217082451263
 31
0.0
  0
ARC
  5
451
330
488
100
AcDbEntity
  8
Visible Edges(PEC)
100
AcDbCircle
 10
148.0
 20
126.7217082451263
 30
0.0
 40
0.8499999999999893
100
AcDbArc
 50
28.07248693585159
 51
151.9275130641483
  0
ARC
  5
452
330
488
100
AcDbEntity
  8
Visible Edges(PEC)
100
AcDbCircle
 10
141.25
 20
130.25
 30
0.0
 40
2.371708245126285
100
AcDbArc
 50
71.56505117707799
 51
288.434948822922
  0
LINE
  5
453
330
488
100
AcDbEntity
  8
Visible Edges(PEC)
100
AcDbLine
 10
142.0
 20
128.0
 30
0.0
 11
145.0
 21
129.5
 31
0.0
  0
LINE
  5
454
330
488
100
AcDbEntity
  8
Visible Edges(PEC)
100
AcDbLine
 10
142.0
 20
132.5
 30
0.0
 11
145.0
 21
131.0
 31
0.0
  0
ARC
  5
455
330
488
100
AcDbEntity
  8
Visible Edges(PEC)
100
AcDbCircle
 10
144.6
 20
130.25
 30
0.0
 40
0.8499999999999893
100
AcDbArc
 50
298.0724869358516
 51
61.92751306414841
  0
ARC
  5
456
330
488
100
AcDbEntity
  8
Visible Edges(PEC)
100
AcDbCircle
 10
154.75
 20
130.25
 30
0.0
 40
2.371708245126285
100
AcDbArc
 50
251.565051177078
 51
108.434948822922
  0
LINE
  5
457
330
488
100
AcDbEntity
  8
Visible Edges(PEC)
100
AcDbLine
 10
154.0
 20
132.5
 30
0.0
 11
151.0
 21
131.0
 31
0.0
  0
LINE
  5
458
330
488
100
AcDbEntity
  8
Visible Edges(PEC)
100
AcDbLine
 10
154.0
 20
128.0
 30
0.0
 11
151.0
 21
129.5
 31
0.0
  0
ARC
  5
459
330
488
100
AcDbEntity
  8
Visible Edges(PEC)
100
AcDbCircle
 10
151.4
 20
130.25
 30
0.0
 40
0.8499999999999893
100
AcDbArc
 50
118.0724869358515
 51
241.9275130641485
  0
ARC
  5
45A
330
488
100
AcDbEntity
  8
Visible Edges(PEC)
100
AcDbCircle
 10
76.75179687871493
 20
119.1175699708297
 30
0.0
 40
0.8499999999999893
100
AcDbArc
 50
73.07248693585159
 51
196.9275130641483
  0
ARC
  5
45B
330
488
100
AcDbEntity
  8
Visible Edges(PEC)
100
AcDbCircle
 10
69.48394707982995
 20
116.8394782236963
 30
0.0
 40
2.371708245126285
100
AcDbArc
 50
116.565051177078
 51
333.434948822922
  0
LINE
  5
45C
330
488
100
AcDbEntity
  8
Visible Edges(PEC)
100
AcDbLine
 10
71.6052674233896
 20
115.7788180519164
 30
0.0
 11
72.66592759516944
 21
118.9607985672559
 31
0.0
  0
LINE
  5
45D
330
488
100
AcDbEntity
  8
Visible Edges(PEC)
100
AcDbLine
 10
68.42328690805014
 20
118.9607985672559
 30
0.0
 11
71.6052674233896
 21
120.0214587390357
 31
0.0
  0
ARC
  5
45E
330
488
100
AcDbEntity
  8
Visible Edges(PEC)
100
AcDbCircle
 10
71.85275479680489
 20
119.2082859406712
 30
0.0
 40
0.8499999999999893
100
AcDbArc
 50
343.0724869358516
 51
106.9275130641484
  0
ARC
  5
45F
330
488
100
AcDbEntity
  8
Visible Edges(PEC)
100
AcDbCircle
 10
79.02988862584836
 20
126.3854197697147
 30
0.0
 40
2.371708245126285
100
AcDbArc
 50
296.565051177078
 51
153.434948822922
  0
LINE
  5
460
330
488
100
AcDbEntity
  8
Visible Edges(PEC)
100
AcDbLine
 10
76.9085682822887
 20
127.4460799414945
 30
0.0
 11
75.84790811050887
 21
124.264099426155
 31
0.0
  0
LINE
  5
461
330
488
100
AcDbEntity
  8
Visible Edges(PEC)
100
AcDbLine
 10
80.09054879762819
 20
124.264099426155
 30
0.0
 11
76.9085682822887
 21
123.2034392543752
 31
0.0
  0
ARC
  5
462
330
488
100
AcDbEntity
  8
Visible Edges(PEC)
100
AcDbCircle
 10
76.66108090887342
 20
124.0166120527397
 30
0.0
 40
0.8499999999999893
100
AcDbArc
 50
163.0724869358515
 51
286.9275130641485
  0
ARC
  5
463
330
488
100
AcDbEntity
  8
Visible Edges(PEC)
100
AcDbCircle
 10
69.72045328860254
 20
126.2143066667408
 30
0.0
 40
2.371708245126285
100
AcDbArc
 50
26.56505117707799
 51
243.434948822922
  0
LINE
  5
464
330
488
100
AcDbEntity
  8
Visible Edges(PEC)
100
AcDbLine
 10
68.65979311682271
 20
124.0929863231812
 30
0.0
 11
71.84177363216217
 21
123.0323261514013
 31
0.0
  0
LINE
  5
465
330
488
100
AcDbEntity
  8
Visible Edges(PEC)
100
AcDbLine
 10
71.84177363216217
 20
127.2749668385206
 30
0.0
 11
72.902433803942
 21
124.0929863231812
 31
0.0
  0
ARC
  5
466
330
488
100
AcDbEntity
  8
Visible Edges(PEC)
100
AcDbCircle
 10
72.08926100557754
 20
123.8454989497658
 30
0.0
 40
0.8499999999999893
100
AcDbArc
 50
253.0724869358516
 51
16.92751306414841
  0
ARC
  5
467
330
488
100
AcDbEntity
  8
Visible Edges(PEC)
100
AcDbCircle
 10
79.12060459568987
 20
116.7487622538547
 30
0.0
 40
2.371708245126285
100
AcDbArc
 50
206.565051177078
 51
63.43494882292201
  0
LINE
  5
468
330
488
100
AcDbEntity
  8
Visible Edges(PEC)
100
AcDbLine
 10
80.1812647674697
 20
118.8700825974144
 30
0.0
 11
76.99928425213021
 21
119.9307427691942
 31
0.0
  0
LINE
  5
469
330
488
100
AcDbEntity
  8
Visible Edges(PEC)
100
AcDbLine
 10
76.99928425213021
 20
115.6881020820749
 30
0.0
 11
75.93862408035041
 21
118.8700825974144
 31
0.0
  0
ENDSEC
  0
SECTION
  2
OBJECTS
  0
DICTIONARY
  5
476
330
0
100
AcDbDictionary
281
     1
  3
ACAD_GROUP
350
477
  3
ACAD_LAYOUT
350
483
  3
ACAD_MATERIAL
350
4A4
  3
ACAD_MLEADERSTYLE
350
50E
  3
ACAD_MLINESTYLE
350
480
  3
ACAD_PLOTSETTINGS
350
482
  3
ACAD_PLOTSTYLENAME
350
478
  3
ACAD_VISUALSTYLE
350
493
  3
AcDbVariableDictionary
350
50C
  3
QCAD_OBJECTS
350
4A9
  0
DICTIONARY
  5
477
102
{ACAD_REACTORS
330
476
102
}
330
476
100
AcDbDictionary
281
     1
  0
DICTIONARY
  5
483
102
{ACAD_REACTORS
330
476
102
}
330
476
100
AcDbDictionary
281
     1
  3
Layout1
350
487
  3
Layout2
350
48F
  3
Model
350
48B
  0
DICTIONARY
  5
4A4
102
{ACAD_REACTORS
330
476
102
}
330
476
100
AcDbDictionary
281
     1
  3
ByBlock
350
4A6
  3
ByLayer
350
4A5
  3
Global
350
4A7
  0
DICTIONARY
  5
50E
102
{ACAD_REACTORS
330
476
102
}
330
476
100
AcDbDictionary
281
     1
  0
DICTIONARY
  5
480
102
{ACAD_REACTORS
330
476
102
}
330
476
100
AcDbDictionary
281
     1
  3
Standard
350
481
  0
DICTIONARY
  5
482
102
{ACAD_REACTORS
330
476
102
}
330
476
100
AcDbDictionary
281
     1
  0
ACDBDICTIONARYWDFLT
  5
478
102
{ACAD_REACTORS
330
476
102
}
330
476
100
AcDbDictionary
281
     1
  3
Normal
350
479
100
AcDbDictionaryWithDefault
340
479
  0
DICTIONARY
  5
493
102
{ACAD_REACTORS
330
476
102
}
330
476
100
AcDbDictionary
281
     1
  3
2dWireframe
350
498
  3
3D Hidden
350
49A
  3
3dWireframe
350
499
  3
Basic
350
49B
  3
Brighten
350
49F
  3
ColorChange
350
4A3
  3
Conceptual
350
49D
  3
Dim
350
49E
  3
Facepattern
350
4A2
  3
Flat
350
494
  3
FlatWithEdges
350
495
  3
Gouraud
350
496
  3
GouraudWithEdges
350
497
  3
Linepattern
350
4A1
  3
Realistic
350
49C
  3
Thicken
350
4A0
  0
DICTIONARY
  5
50C
102
{ACAD_REACTORS
330
476
102
}
330
476
100
AcDbDictionary
281
     1
  3
DIMASSOC
350
50F
  3
HIDETEXT
350
510
  0
DICTIONARY
  5
4A9
102
{ACAD_REACTORS
330
476
102
}
330
476
100
AcDbDictionary
281
     1
  3
Grid/DisplayGrid
350
4BA
  3
Grid/GridSpacingX
350
4B3
  3
Grid/GridSpacingY
350
4B5
  3
Grid/MetaGridSpacingX
350
4AD
  3
Grid/MetaGridSpacingY
350
4B1
  3
MultiPageSettings/Columns
350
4B2
  3
MultiPageSettings/GlueMarginBottom
350
4AE
  3
MultiPageSettings/GlueMarginsLeft
350
4B6
  3
MultiPageSettings/GlueMarginsRight
350
4AA
  3
MultiPageSettings/GlueMarginsTop
350
4BE
  3
MultiPageSettings/PrintCropMarks
350
4AC
  3
MultiPageSettings/Rows
350
4B7
  3
PageSettings/OffsetX
350
4BC
  3
PageSettings/OffsetY
350
4BD
  3
PageSettings/PageOrientation
350
4AB
  3
PageSettings/PaperHeight
350
4AF
  3
PageSettings/PaperWidth
350
4B8
  3
PageSettings/Scale
350
4B0
  3
PageSettings/ShowBoundingBox
350
4B4
  3
PageSettings/ShowPageBorders
350
4BB
  3
UnitSettings/PaperUnit
350
4B9
  0
LAYOUT
  5
487
102
{ACAD_REACTORS
330
483
102
}
330
483
100
AcDbPlotSettings
  1

  2
none_device
  4

  6

 40
0.0
 41
0.0
 42
0.0
 43
0.0
 44
0.0
 45
0.0
 46
0.0
 47
0.0
 48
0.0
 49
0.0
140
0.0
141
0.0
142
1.0
143
1.0
 70
   688
 72
     0
 73
     0
 74
     5
  7

 75
    16
147
1.0
148
0.0
149
0.0
100
AcDbLayout
  1
Layout1
 70
     1
 71
     1
 10
0.0
 20
0.0
 11
210.0
 21
297.0
 12
0.0
 22
0.0
 32
0.0
 14
0.0
 24
0.0
 34
0.0
 15
210.0
 25
297.0
 35
0.0
146
0.0
 13
0.0
 23
0.0
 33
0.0
 16
1.0
 26
0.0
 36
0.0
 17
0.0
 27
1.0
 37
0.0
 76
     0
330
484
  0
LAYOUT
  5
48F
102
{ACAD_REACTORS
330
483
102
}
330
483
100
AcDbPlotSettings
  1

  2
none_device
  4

  6

 40
0.0
 41
0.0
 42
0.0
 43
0.0
 44
0.0
 45
0.0
 46
0.0
 47
0.0
 48
0.0
 49
0.0
140
0.0
141
0.0
142
1.0
143
1.0
 70
   688
 72
     0
 73
     0
 74
     5
  7

 75
    16
147
1.0
148
0.0
149
0.0
100
AcDbLayout
  1
Layout2
 70
     1
 71
     2
 10
0.0
 20
0.0
 11
0.0
 21
0.0
 12
0.0
 22
0.0
 32
0.0
 14
0.0
 24
0.0
 34
0.0
 15
0.0
 25
0.0
 35
0.0
146
0.0
 13
0.0
 23
0.0
 33
0.0
 16
1.0
 26
0.0
 36
0.0
 17
0.0
 27
1.0
 37
0.0
 76
     0
330
48C
  0
LAYOUT
  5
48B
102
{ACAD_REACTORS
330
483
102
}
330
483
100
AcDbPlotSettings
  1

  2
none_device
  4

  6

 40
0.0
 41
0.0
 42
0.0
 43
0.0
 44
0.0
 45
0.0
 46
0.0
 47
0.0
 48
0.0
 49
0.0
140
0.0
141
0.0
142
1.0
143
1.0
 70
  1712
 72
     0
 73
     0
 74
     0
  7

 75
     0
147
1.0
148
0.0
149
0.0
100
AcDbLayout
  1
Model
 70
     1
 71
     0
 10
0.0
 20
0.0
 11
210.0
 21
297.0
 12
0.0
 22
0.0
 32
0.0
 14
0.0
 24
10.0
 34
0.0
 15
204.0
 25
287.0
 35
0.0
146
0.0
 13
0.0
 23
0.0
 33
0.0
 16
1.0
 26
0.0
 36
0.0
 17
0.0
 27
1.0
 37
0.0
 76
     0
330
488
331
492
  0
MATERIAL
  5
4A6
102
{ACAD_REACTORS
330
4A4
102
}
102
{ACAD_XDICTIONARY
360
533
102
}
330
4A4
100
AcDbMaterial
  1
ByBlock
  0
MATERIAL
  5
4A5
102
{ACAD_REACTORS
330
4A4
102
}
102
{ACAD_XDICTIONARY
360
531
102
}
330
4A4
100
AcDbMaterial
  1
ByLayer
  0
MATERIAL
  5
4A7
102
{ACAD_REACTORS
330
4A4
102
}
102
{ACAD_XDICTIONARY
360
535
102
}
330
4A4
100
AcDbMaterial
  1
Global
  0
MLINESTYLE
  5
481
102
{ACAD_REACTORS
330
480
102
}
330
480
100
AcDbMlineStyle
  2
Standard
 70
     0
  3

 62
   256
 51
90.0
 52
90.0
 71
     2
 49
0.5
 62
   256
  6
BYLAYER
 49
-0.5
 62
   256
  6
BYLAYER
  0
ACDBPLACEHOLDER
  5
479
102
{ACAD_REACTORS
330
478
102
}
330
478
  0
VISUALSTYLE
  5
498
102
{ACAD_REACTORS
330
493
102
}
102
{ACAD_XDICTIONARY
360
519
102
}
330
493
100
AcDbVisualStyle
  2
2dWireframe
 70
     4
 71
     0
 72
     2
 73
     0
 90
        0
 40
-0.6
 41
-30.0
 62
     5
 63
     7
 74
     1
 91
        4
 64
     7
 65
   257
 75
     1
175
     1
 42
1.0
 92
        0
 66
   257
 43
1.0
 76
     1
 77
     6
 78
     2
 67
     7
 79
     5
170
     0
171
     0
290
     0
174
     0
 93
        1
 44
0.0
173
     0
291
     0
 45
0.0
1001
ACAD
1000
AcDbSavedByObjectVersion
1070
     0
  0
VISUALSTYLE
  5
49A
102
{ACAD_REACTORS
330
493
102
}
102
{ACAD_XDICTIONARY
360
51D
102
}
330
493
100
AcDbVisualStyle
  2
3D Hidden
 70
     6
 71
     1
 72
     2
 73
     2
 90
        0
 40
-0.6
 41
-30.0
 62
     5
 63
     7
 74
     2
 91
        2
 64
     7
 65
   257
 75
     2
175
     1
 42
40.0
 92
        0
 66
   257
 43
1.0
 76
     1
 77
     6
 78
     2
 67
     7
 79
     3
170
     0
171
     0
290
     0
174
     0
 93
        1
 44
0.0
173
     0
291
     0
 45
0.0
1001
ACAD
1000
AcDbSavedByObjectVersion
1070
     0
  0
VISUALSTYLE
  5
499
102
{ACAD_REACTORS
330
493
102
}
102
{ACAD_XDICTIONARY
360
51B
102
}
330
493
100
AcDbVisualStyle
  2
3dWireframe
 70
     5
 71
     0
 72
     2
 73
     0
 90
        0
 40
-0.6
 41
-30.0
 62
     5
 63
     7
 74
     1
 91
        4
 64
     7
 65
   257
 75
     1
175
     1
 42
1.0
 92
        0
 66
   257
 43
1.0
 76
     1
 77
     6
 78
     2
 67
     7
 79
     5
170
     0
171
     0
290
     0
174
     0
 93
        1
 44
0.0
173
     0
291
     0
 45
0.0
1001
ACAD
1000
AcDbSavedByObjectVersion
1070
     0
  0
VISUALSTYLE
  5
49B
102
{ACAD_REACTORS
330
493
102
}
102
{ACAD_XDICTIONARY
360
51F
102
}
330
493
100
AcDbVisualStyle
  2
Basic
 70
     7
 71
     1
 72
     0
 73
     1
 90
        0
 40
-0.6
 41
-30.0
 62
     5
 63
     7
 74
     0
 91
        4
 64
     7
 65
   257
 75
     1
175
     1
 42
1.0
 92
        8
 66
     7
 43
1.0
 76
     1
 77
     6
 78
     2
 67
     7
 79
     5
170
     0
171
     0
290
     0
174
     0
 93
        1
 44
0.0
173
     0
291
     1
 45
0.0
1001
ACAD
1000
AcDbSavedByObjectVersion
1070
     0
  0
VISUALSTYLE
  5
49F
102
{ACAD_REACTORS
330
493
102
}
102
{ACAD_XDICTIONARY
360
527
102
}
330
493
100
AcDbVisualStyle
  2
Brighten
 70
    12
 71
     2
 72
     2
 73
     0
 90
        0
 40
-0.6
 41
-30.0
 62
     5
 63
     7
 74
     1
 91
        4
 64
     7
 65
   257
 75
     1
175
     1
 42
1.0
 92
        8
 66
     7
 43
1.0
 76
     1
 77
     6
 78
     2
 67
     7
 79
     5
170
     0
171
     0
290
     0
174
     0
 93
        1
 44
50.0
173
     0
291
     1
 45
0.0
1001
ACAD
1000
AcDbSavedByObjectVersion
1070
     0
  0
VISUALSTYLE
  5
4A3
102
{ACAD_REACTORS
330
493
102
}
102
{ACAD_XDICTIONARY
360
52F
102
}
330
493
100
AcDbVisualStyle
  2
ColorChange
 70
    16
 71
     2
 72
     2
 73
     3
 90
        0
 40
-0.6
 41
-30.0
 62
     5
 63
     8
 74
     1
 91
        4
 64
     7
 65
   257
 75
     1
175
     1
 42
1.0
 92
        8
 66
     8
 43
1.0
 76
     1
 77
     6
 78
     2
 67
     7
 79
     5
170
     0
171
     0
290
     0
174
     0
 93
        1
 44
0.0
173
     0
291
     1
 45
0.0
1001
ACAD
1000
AcDbSavedByObjectVersion
1070
     0
  0
VISUALSTYLE
  5
49D
102
{ACAD_REACTORS
330
493
102
}
102
{ACAD_XDICTIONARY
360
523
102
}
330
493
100
AcDbVisualStyle
  2
Conceptual
 70
     9
 71
     3
 72
     2
 73
     0
 90
        0
 40
-0.6
 41
-30.0
 62
     5
 63
     7
 74
     2
 91
        2
 64
     7
 65
   257
 75
     1
175
     1
 42
40.0
 92
        8
 66
     7
 43
1.0
 76
     1
 77
     6
 78
     2
 67
     7
 79
     3
170
     0
171
     0
290
     0
174
     0
 93
        1
 44
0.0
173
     0
291
     0
 45
0.0
1001
ACAD
1000
AcDbSavedByObjectVersion
1070
     0
  0
VISUALSTYLE
  5
49E
102
{ACAD_REACTORS
330
493
102
}
102
{ACAD_XDICTIONARY
360
525
102
}
330
493
100
AcDbVisualStyle
  2
Dim
 70
    11
 71
     2
 72
     2
 73
     0
 90
        0
 40
-0.6
 41
-30.0
 62
     5
 63
     7
 74
     1
 91
        4
 64
     7
 65
   257
 75
     1
175
     1
 42
1.0
 92
        8
 66
     7
 43
1.0
 76
     1
 77
     6
 78
     2
 67
     7
 79
     5
170
     0
171
     0
290
     0
174
     0
 93
        1
 44
-50.0
173
     0
291
     1
 45
0.0
1001
ACAD
1000
AcDbSavedByObjectVersion
1070
     0
  0
VISUALSTYLE
  5
4A2
102
{ACAD_REACTORS
330
493
102
}
102
{ACAD_XDICTIONARY
360
52D
102
}
330
493
100
AcDbVisualStyle
  2
Facepattern
 70
    15
 71
     2
 72
     2
 73
     0
 90
        0
 40
-0.6
 41
-30.0
 62
     5
 63
     7
 74
     1
 91
        4
 64
     7
 65
   257
 75
     1
175
     1
 42
1.0
 92
        8
 66
     7
 43
1.0
 76
     1
 77
     6
 78
     2
 67
     7
 79
     5
170
     0
171
     0
290
     0
174
     0
 93
        1
 44
0.0
173
     0
291
     1
 45
0.0
1001
ACAD
1000
AcDbSavedByObjectVersion
1070
     0
  0
VISUALSTYLE
  5
494
102
{ACAD_REACTORS
330
493
102
}
102
{ACAD_XDICTIONARY
360
511
102
}
330
493
100
AcDbVisualStyle
  2
Flat
 70
     0
 71
     2
 72
     1
 73
     1
 90
        2
 40
-0.6
 41
30.0
 62
     5
 63
     7
 74
     0
 91
        4
 64
     7
 65
   257
 75
     1
175
     1
 42
1.0
 92
        8
 66
     7
 43
1.0
 76
     1
 77
     6
 78
     2
 67
     7
 79
     5
170
     0
171
     0
290
     0
174
     0
 93
       13
 44
0.0
173
     0
291
     1
 45
0.0
1001
ACAD
1000
AcDbSavedByObjectVersion
1070
     0
  0
VISUALSTYLE
  5
495
102
{ACAD_REACTORS
330
493
102
}
102
{ACAD_XDICTIONARY
360
513
102
}
330
493
100
AcDbVisualStyle
  2
FlatWithEdges
 70
     1
 71
     2
 72
     1
 73
     1
 90
        2
 40
-0.6
 41
30.0
 62
     5
 63
     7
 74
     1
 91
        4
 64
     7
 65
   257
 75
     1
175
     1
 42
1.0
 92
        0
 66
   257
 43
1.0
 76
     1
 77
     6
 78
     2
 67
     7
 79
     5
170
     0
171
     0
290
     0
174
     0
 93
       13
 44
0.0
173
     0
291
     1
 45
0.0
1001
ACAD
1000
AcDbSavedByObjectVersion
1070
     0
  0
VISUALSTYLE
  5
496
102
{ACAD_REACTORS
330
493
102
}
102
{ACAD_XDICTIONARY
360
515
102
}
330
493
100
AcDbVisualStyle
  2
Gouraud
 70
     2
 71
     2
 72
     2
 73
     1
 90
        2
 40
-0.6
 41
30.0
 62
     5
 63
     7
 74
     0
 91
        4
 64
     7
 65
   257
 75
     1
175
     1
 42
1.0
 92
        0
 66
     7
 43
1.0
 76
     1
 77
     6
 78
     2
 67
     7
 79
     5
170
     0
171
     0
290
     0
174
     0
 93
       13
 44
0.0
173
     0
291
     1
 45
0.0
1001
ACAD
1000
AcDbSavedByObjectVersion
1070
     0
  0
VISUALSTYLE
  5
497
102
{ACAD_REACTORS
330
493
102
}
102
{ACAD_XDICTIONARY
360
517
102
}
330
493
100
AcDbVisualStyle
  2
GouraudWithEdges
 70
     3
 71
     2
 72
     2
 73
     1
 90
        2
 40
-0.6
 41
30.0
 62
     5
 63
     7
 74
     1
 91
        4
 64
     7
 65
   257
 75
     1
175
     1
 42
1.0
 92
        0
 66
   257
 43
1.0
 76
     1
 77
     6
 78
     2
 67
     7
 79
     5
170
     0
171
     0
290
     0
174
     0
 93
       13
 44
0.0
173
     0
291
     1
 45
0.0
1001
ACAD
1000
AcDbSavedByObjectVersion
1070
     0
  0
VISUALSTYLE
  5
4A1
102
{ACAD_REACTORS
330
493
102
}
102
{ACAD_XDICTIONARY
360
52B
102
}
330
493
100
AcDbVisualStyle
  2
Linepattern
 70
    14
 71
     2
 72
     2
 73
     0
 90
        0
 40
-0.6
 41
-30.0
 62
     5
 63
     7
 74
     1
 91
        4
 64
     7
 65
   257
 75
     7
175
     7
 42
1.0
 92
        8
 66
     7
 43
1.0
 76
     1
 77
     6
 78
     2
 67
     7
 79
     5
170
     0
171
     0
290
     0
174
     0
 93
        1
 44
0.0
173
     0
291
     1
 45
0.0
1001
ACAD
1000
AcDbSavedByObjectVersion
1070
     0
  0
VISUALSTYLE
  5
49C
102
{ACAD_REACTORS
330
493
102
}
102
{ACAD_XDICTIONARY
360
521
102
}
330
493
100
AcDbVisualStyle
  2
Realistic
 70
     8
 71
     2
 72
     2
 73
     0
 90
        0
 40
-0.6
 41
-30.0
 62
     5
 63
     7
 74
     1
 91
        0
 64
     7
 65
   257
 75
     1
175
     1
 42
1.0
 92
        8
 66
     8
 43
1.0
 76
     1
 77
     6
 78
     2
 67
     7
 79
     5
170
     0
171
     0
290
     0
174
     0
 93
       13
 44
0.0
173
     0
291
     0
 45
0.0
1001
ACAD
1000
AcDbSavedByObjectVersion
1070
     0
  0
VISUALSTYLE
  5
4A0
102
{ACAD_REACTORS
330
493
102
}
102
{ACAD_XDICTIONARY
360
529
102
}
330
493
100
AcDbVisualStyle
  2
Thicken
 70
    13
 71
     2
 72
     2
 73
     0
 90
        0
 40
-0.6
 41
-30.0
 62
     5
 63
     7
 74
     1
 91
        4
 64
     7
 65
   257
 75
     1
175
     1
 42
1.0
 92
       12
 66
     7
 43
1.0
 76
     1
 77
     6
 78
     2
 67
     7
 79
     5
170
     0
171
     0
290
     0
174
     0
 93
        1
 44
0.0
173
     0
291
     1
 45
0.0
1001
ACAD
1000
AcDbSavedByObjectVersion
1070
     0
  0
DICTIONARYVAR
  5
50F
102
{ACAD_REACTORS
330
50C
102
}
330
50C
100
DictionaryVariables
280
     0
  1
2
  0
DICTIONARYVAR
  5
510
102
{ACAD_REACTORS
330
50C
102
}
330
50C
100
DictionaryVariables
280
     0
  1
1
  0
XRECORD
  5
4BA
102
{ACAD_REACTORS
330
4A9
102
}
330
4A9
100
AcDbXrecord
280
     1
290
     1
  0
XRECORD
  5
4B3
102
{ACAD_REACTORS
330
4A9
102
}
330
4A9
100
AcDbXrecord
280
     1
1000
auto
  0
XRECORD
  5
4B5
102
{ACAD_REACTORS
330
4A9
102
}
330
4A9
100
AcDbXrecord
280
     1
1000
auto
  0
XRECORD
  5
4AD
102
{ACAD_REACTORS
330
4A9
102
}
330
4A9
100
AcDbXrecord
280
     1
1000
auto
  0
XRECORD
  5
4B1
102
{ACAD_REACTORS
330
4A9
102
}
330
4A9
100
AcDbXrecord
280
     1
1000
auto
  0
XRECORD
  5
4B2
102
{ACAD_REACTORS
330
4A9
102
}
330
4A9
100
AcDbXrecord
280
     1
 90
        1
  0
XRECORD
  5
4AE
102
{ACAD_REACTORS
330
4A9
102
}
330
4A9
100
AcDbXrecord
280
     1
 40
10.0
  0
XRECORD
  5
4B6
102
{ACAD_REACTORS
330
4A9
102
}
330
4A9
100
AcDbXrecord
280
     1
 40
10.0
  0
XRECORD
  5
4AA
102
{ACAD_REACTORS
330
4A9
102
}
330
4A9
100
AcDbXrecord
280
     1
 40
10.0
  0
XRECORD
  5
4BE
102
{ACAD_REACTORS
330
4A9
102
}
330
4A9
100
AcDbXrecord
280
     1
 40
10.0
  0
XRECORD
  5
4AC
102
{ACAD_REACTORS
330
4A9
102
}
330
4A9
100
AcDbXrecord
280
     1
290
     0
  0
XRECORD
  5
4B7
102
{ACAD_REACTORS
330
4A9
102
}
330
4A9
100
AcDbXrecord
280
     1
 90
        1
  0
XRECORD
  5
4BC
102
{ACAD_REACTORS
330
4A9
102
}
330
4A9
100
AcDbXrecord
280
     1
 40
0.0
  0
XRECORD
  5
4BD
102
{ACAD_REACTORS
330
4A9
102
}
330
4A9
100
AcDbXrecord
280
     1
 40
0.0
  0
XRECORD
  5
4AB
102
{ACAD_REACTORS
330
4A9
102
}
330
4A9
100
AcDbXrecord
280
     1
1000
Portrait
  0
XRECORD
  5
4AF
102
{ACAD_REACTORS
330
4A9
102
}
330
4A9
100
AcDbXrecord
280
     1
 40
297.0
  0
XRECORD
  5
4B8
102
{ACAD_REACTORS
330
4A9
102
}
330
4A9
100
AcDbXrecord
280
     1
 40
210.0
  0
XRECORD
  5
4B0
102
{ACAD_REACTORS
330
4A9
102
}
330
4A9
100
AcDbXrecord
280
     1
1000
1:1
  0
XRECORD
  5
4B4
102
{ACAD_REACTORS
330
4A9
102
}
330
4A9
100
AcDbXrecord
280
     1
290
     0
  0
XRECORD
  5
4BB
102
{ACAD_REACTORS
330
4A9
102
}
330
4A9
100
AcDbXrecord
280
     1
290
     1
  0
XRECORD
  5
4B9
102
{ACAD_REACTORS
330
4A9
102
}
330
4A9
100
AcDbXrecord
280
     1
 90
        4
  0
DICTIONARY
  5
533
330
4A6
100
AcDbDictionary
280
     1
281
     1
  3
ACAD_XREC_ROUNDTRIP
360
534
  0
DICTIONARY
  5
531
330
4A5
100
AcDbDictionary
280
     1
281
     1
  3
ACAD_XREC_ROUNDTRIP
360
532
  0
DICTIONARY
  5
535
330
4A7
100
AcDbDictionary
280
     1
281
     1
  3
ACAD_XREC_ROUNDTRIP
360
536
  0
DICTIONARY
  5
519
330
498
100
AcDbDictionary
280
     1
281
     1
  3
ACAD_XREC_ROUNDTRIP
360
51A
  0
DICTIONARY
  5
51D
330
49A
100
AcDbDictionary
280
     1
281
     1
  3
ACAD_XREC_ROUNDTRIP
360
51E
  0
DICTIONARY
  5
51B
330
499
100
AcDbDictionary
280
     1
281
     1
  3
ACAD_XREC_ROUNDTRIP
360
51C
  0
DICTIONARY
  5
51F
330
49B
100
AcDbDictionary
280
     1
281
     1
  3
ACAD_XREC_ROUNDTRIP
360
520
  0
DICTIONARY
  5
527
330
49F
100
AcDbDictionary
280
     1
281
     1
  3
ACAD_XREC_ROUNDTRIP
360
528
  0
DICTIONARY
  5
52F
330
4A3
100
AcDbDictionary
280
     1
281
     1
  3
ACAD_XREC_ROUNDTRIP
360
530
  0
DICTIONARY
  5
523
330
49D
100
AcDbDictionary
280
     1
281
     1
  3
ACAD_XREC_ROUNDTRIP
360
524
  0
DICTIONARY
  5
525
330
49E
100
AcDbDictionary
280
     1
281
     1
  3
ACAD_XREC_ROUNDTRIP
360
526
  0
DICTIONARY
  5
52D
330
4A2
100
AcDbDictionary
280
     1
281
     1
  3
ACAD_XREC_ROUNDTRIP
360
52E
  0
DICTIONARY
  5
511
330
494
100
AcDbDictionary
280
     1
281
     1
  3
ACAD_XREC_ROUNDTRIP
360
512
  0
DICTIONARY
  5
513
330
495
100
AcDbDictionary
280
     1
281
     1
  3
ACAD_XREC_ROUNDTRIP
360
514
  0
DICTIONARY
  5
515
330
496
100
AcDbDictionary
280
     1
281
     1
  3
ACAD_XREC_ROUNDTRIP
360
516
  0
DICTIONARY
  5
517
330
497
100
AcDbDictionary
280
     1
281
     1
  3
ACAD_XREC_ROUNDTRIP
360
518
  0
DICTIONARY
  5
52B
330
4A1
100
AcDbDictionary
280
     1
281
     1
  3
ACAD_XREC_ROUNDTRIP
360
52C
  0
DICTIONARY
  5
521
330
49C
100
AcDbDictionary
280
     1
281
     1
  3
ACAD_XREC_ROUNDTRIP
360
522
  0
DICTIONARY
  5
529
330
4A0
100
AcDbDictionary
280
     1
281
     1
  3
ACAD_XREC_ROUNDTRIP
360
52A
  0
XRECORD
  5
534
102
{ACAD_REACTORS
330
533
102
}
330
533
100
AcDbXrecord
280
     1
102
MATERIAL
148
0.0
149
0.0
149
0.0
 93
        0
 94
      127
282
     0
 72
     1
 77
     1
171
     1
175
     1
179
     1
273
     0
  0
XRECORD
  5
532
102
{ACAD_REACTORS
330
531
102
}
330
531
100
AcDbXrecord
280
     1
102
MATERIAL
148
0.0
149
0.0
149
0.0
 93
        0
 94
      127
282
     0
 72
     1
 77
     1
171
     1
175
     1
179
     1
273
     0
  0
XRECORD
  5
536
102
{ACAD_REACTORS
330
535
102
}
330
535
100
AcDbXrecord
280
     1
102
MATERIAL
148
0.0
149
0.0
149
0.0
 93
        0
 94
      127
282
     0
 72
     1
 77
     1
171
     1
175
     1
179
     1
273
     0
  0
XRECORD
  5
51A
102
{ACAD_REACTORS
330
519
102
}
330
519
100
AcDbXrecord
280
     1
102
RTVSPropertyOp0
 70
     1
102
RTVSPropertyOp1
 70
     1
102
RTVSPropertyOp2
 70
     1
102
RTVSPropertyOp3
 70
     1
102
RTVSPropertyOp4
 70
     1
102
RTVSPropertyOp5
 70
     1
102
RTVSPropertyOp6
 70
     1
102
RTVSPropertyOp7
 70
     1
102
RTVSPropertyOp8
 70
     1
102
RTVSPropertyOp9
 70
     1
102
RTVSPropertyOp10
 70
     1
102
RTVSPropertyOp11
 70
     1
102
RTVSPropertyOp12
 70
     1
102
RTVSPropertyOp13
 70
     1
102
RTVSPropertyOp14
 70
     1
102
RTVSPropertyOp15
 70
     1
102
RTVSPropertyOp16
 70
     1
102
RTVSPropertyOp17
 70
     1
102
RTVSPropertyOp18
 70
     1
102
RTVSPropertyOp19
 70
     1
102
RTVSPropertyOp20
 70
     1
102
RTVSPropertyOp21
 70
     1
102
RTVSPropertyOp22
 70
     1
102
RTVSPropertyOp23
 70
     1
102
RTVSPropertyOp24
 70
     1
102
RTVSPropertyOp25
 70
     1
102
RTVSPropertyOp26
 70
     1
102
RTVSPropertyOp27
 70
     1
102
RTVSPropertyOp28
 70
     1
102
RTVSPropertyOp29
 70
     1
102
RTVSPropertyOp30
 70
     1
102
RTVSPropertyOp31
 70
     1
102
RTVSPropertyOp32
 70
     1
  0
XRECORD
  5
51E
102
{ACAD_REACTORS
330
51D
102
}
330
51D
100
AcDbXrecord
280
     1
102
RTVSPropertyOp0
 70
     1
102
RTVSPropertyOp1
 70
     1
102
RTVSPropertyOp2
 70
     1
102
RTVSPropertyOp3
 70
     1
102
RTVSPropertyOp4
 70
     1
102
RTVSPropertyOp5
 70
     1
102
RTVSPropertyOp6
 70
     1
102
RTVSPropertyOp7
 70
     1
102
RTVSPropertyOp8
 70
     1
102
RTVSPropertyOp9
 70
     1
102
RTVSPropertyOp10
 70
     1
102
RTVSPropertyOp11
 70
     1
102
RTVSPropertyOp12
 70
     1
102
RTVSPropertyOp13
 70
     1
102
RTVSPropertyOp14
 70
     1
102
RTVSPropertyOp15
 70
     1
102
RTVSPropertyOp16
 70
     1
102
RTVSPropertyOp17
 70
     1
102
RTVSPropertyOp18
 70
     1
102
RTVSPropertyOp19
 70
     1
102
RTVSPropertyOp20
 70
     1
102
RTVSPropertyOp21
 70
     1
102
RTVSPropertyOp22
 70
     1
102
RTVSPropertyOp23
 70
     1
102
RTVSPropertyOp24
 70
     1
102
RTVSPropertyOp25
 70
     1
102
RTVSPropertyOp26
 70
     1
102
RTVSPropertyOp27
 70
     1
102
RTVSPropertyOp28
 70
     1
102
RTVSPropertyOp29
 70
     1
102
RTVSPropertyOp30
 70
     1
102
RTVSPropertyOp31
 70
     1
102
RTVSPropertyOp32
 70
     1
  0
XRECORD
  5
51C
102
{ACAD_REACTORS
330
51B
102
}
330
51B
100
AcDbXrecord
280
     1
102
RTVSPropertyOp0
 70
     1
102
RTVSPropertyOp1
 70
     1
102
RTVSPropertyOp2
 70
     1
102
RTVSPropertyOp3
 70
     1
102
RTVSPropertyOp4
 70
     1
102
RTVSPropertyOp5
 70
     1
102
RTVSPropertyOp6
 70
     1
102
RTVSPropertyOp7
 70
     1
102
RTVSPropertyOp8
 70
     1
102
RTVSPropertyOp9
 70
     1
102
RTVSPropertyOp10
 70
     1
102
RTVSPropertyOp11
 70
     1
102
RTVSPropertyOp12
 70
     1
102
RTVSPropertyOp13
 70
     1
102
RTVSPropertyOp14
 70
     1
102
RTVSPropertyOp15
 70
     1
102
RTVSPropertyOp16
 70
     1
102
RTVSPropertyOp17
 70
     1
102
RTVSPropertyOp18
 70
     1
102
RTVSPropertyOp19
 70
     1
102
RTVSPropertyOp20
 70
     1
102
RTVSPropertyOp21
 70
     1
102
RTVSPropertyOp22
 70
     1
102
RTVSPropertyOp23
 70
     1
102
RTVSPropertyOp24
 70
     1
102
RTVSPropertyOp25
 70
     1
102
RTVSPropertyOp26
 70
     1
102
RTVSPropertyOp27
 70
     1
102
RTVSPropertyOp28
 70
     1
102
RTVSPropertyOp29
 70
     1
102
RTVSPropertyOp30
 70
     1
102
RTVSPropertyOp31
 70
     1
102
RTVSPropertyOp32
 70
     1
  0
XRECORD
  5
520
102
{ACAD_REACTORS
330
51F
102
}
330
51F
100
AcDbXrecord
280
     1
102
RTVSPropertyOp0
 70
     1
102
RTVSPropertyOp1
 70
     1
102
RTVSPropertyOp2
 70
     1
102
RTVSPropertyOp3
 70
     1
102
RTVSPropertyOp4
 70
     1
102
RTVSPropertyOp5
 70
     1
102
RTVSPropertyOp6
 70
     1
102
RTVSPropertyOp7
 70
     1
102
RTVSPropertyOp8
 70
     1
102
RTVSPropertyOp9
 70
     1
102
RTVSPropertyOp10
 70
     1
102
RTVSPropertyOp11
 70
     1
102
RTVSPropertyOp12
 70
     1
102
RTVSPropertyOp13
 70
     1
102
RTVSPropertyOp14
 70
     1
102
RTVSPropertyOp15
 70
     1
102
RTVSPropertyOp16
 70
     1
102
RTVSPropertyOp17
 70
     1
102
RTVSPropertyOp18
 70
     1
102
RTVSPropertyOp19
 70
     1
102
RTVSPropertyOp20
 70
     1
102
RTVSPropertyOp21
 70
     1
102
RTVSPropertyOp22
 70
     1
102
RTVSPropertyOp23
 70
     1
102
RTVSPropertyOp24
 70
     1
102
RTVSPropertyOp25
 70
     1
102
RTVSPropertyOp26
 70
     1
102
RTVSPropertyOp27
 70
     1
102
RTVSPropertyOp28
 70
     1
102
RTVSPropertyOp29
 70
     1
102
RTVSPropertyOp30
 70
     1
102
RTVSPropertyOp31
 70
     1
102
RTVSPropertyOp32
 70
     1
  0
XRECORD
  5
528
102
{ACAD_REACTORS
330
527
102
}
330
527
100
AcDbXrecord
280
     1
102
RTVSPropertyOp0
 70
     1
102
RTVSPropertyOp1
 70
     1
102
RTVSPropertyOp2
 70
     1
102
RTVSPropertyOp3
 70
     1
102
RTVSPropertyOp4
 70
     1
102
RTVSPropertyOp5
 70
     1
102
RTVSPropertyOp6
 70
     1
102
RTVSPropertyOp7
 70
     1
102
RTVSPropertyOp8
 70
     1
102
RTVSPropertyOp9
 70
     1
102
RTVSPropertyOp10
 70
     1
102
RTVSPropertyOp11
 70
     1
102
RTVSPropertyOp12
 70
     1
102
RTVSPropertyOp13
 70
     1
102
RTVSPropertyOp14
 70
     1
102
RTVSPropertyOp15
 70
     1
102
RTVSPropertyOp16
 70
     1
102
RTVSPropertyOp17
 70
     1
102
RTVSPropertyOp18
 70
     1
102
RTVSPropertyOp19
 70
     1
102
RTVSPropertyOp20
 70
     1
102
RTVSPropertyOp21
 70
     1
102
RTVSPropertyOp22
 70
     1
102
RTVSPropertyOp23
 70
     1
102
RTVSPropertyOp24
 70
     1
102
RTVSPropertyOp25
 70
     1
102
RTVSPropertyOp26
 70
     1
102
RTVSPropertyOp27
 70
     1
102
RTVSPropertyOp28
 70
     1
102
RTVSPropertyOp29
 70
     1
102
RTVSPropertyOp30
 70
     1
102
RTVSPropertyOp31
 70
     1
102
RTVSPropertyOp32
 70
     1
  0
XRECORD
  5
530
102
{ACAD_REACTORS
330
52F
102
}
330
52F
100
AcDbXrecord
280
     1
102
RTVSPropertyOp0
 70
     1
102
RTVSPropertyOp1
 70
     1
102
RTVSPropertyOp2
 70
     1
102
RTVSPropertyOp3
 70
     1
102
RTVSPropertyOp4
 70
     1
102
RTVSPropertyOp5
 70
     1
102
RTVSPropertyOp6
 70
     1
102
RTVSPropertyOp7
 70
     1
102
RTVSPropertyOp8
 70
     1
102
RTVSPropertyOp9
 70
     1
102
RTVSPropertyOp10
 70
     1
102
RTVSPropertyOp11
 70
     1
102
RTVSPropertyOp12
 70
     1
102
RTVSPropertyOp13
 70
     1
102
RTVSPropertyOp14
 70
     1
102
RTVSPropertyOp15
 70
     1
102
RTVSPropertyOp16
 70
     1
102
RTVSPropertyOp17
 70
     1
102
RTVSPropertyOp18
 70
     1
102
RTVSPropertyOp19
 70
     1
102
RTVSPropertyOp20
 70
     1
102
RTVSPropertyOp21
 70
     1
102
RTVSPropertyOp22
 70
     1
102
RTVSPropertyOp23
 70
     1
102
RTVSPropertyOp24
 70
     1
102
RTVSPropertyOp25
 70
     1
102
RTVSPropertyOp26
 70
     1
102
RTVSPropertyOp27
 70
     1
102
RTVSPropertyOp28
 70
     1
102
RTVSPropertyOp29
 70
     1
102
RTVSPropertyOp30
 70
     1
102
RTVSPropertyOp31
 70
     1
102
RTVSPropertyOp32
 70
     1
  0
XRECORD
  5
524
102
{ACAD_REACTORS
330
523
102
}
330
523
100
AcDbXrecord
280
     1
102
RTVSPropertyOp0
 70
     1
102
RTVSPropertyOp1
 70
     1
102
RTVSPropertyOp2
 70
     1
102
RTVSPropertyOp3
 70
     1
102
RTVSPropertyOp4
 70
     1
102
RTVSPropertyOp5
 70
     1
102
RTVSPropertyOp6
 70
     1
102
RTVSPropertyOp7
 70
     1
102
RTVSPropertyOp8
 70
     1
102
RTVSPropertyOp9
 70
     1
102
RTVSPropertyOp10
 70
     1
102
RTVSPropertyOp11
 70
     1
102
RTVSPropertyOp12
 70
     1
102
RTVSPropertyOp13
 70
     1
102
RTVSPropertyOp14
 70
     1
102
RTVSPropertyOp15
 70
     1
102
RTVSPropertyOp16
 70
     1
102
RTVSPropertyOp17
 70
     1
102
RTVSPropertyOp18
 70
     1
102
RTVSPropertyOp19
 70
     1
102
RTVSPropertyOp20
 70
     1
102
RTVSPropertyOp21
 70
     1
102
RTVSPropertyOp22
 70
     1
102
RTVSPropertyOp23
 70
     1
102
RTVSPropertyOp24
 70
     1
102
RTVSPropertyOp25
 70
     1
102
RTVSPropertyOp26
 70
     1
102
RTVSPropertyOp27
 70
     1
102
RTVSPropertyOp28
 70
     1
102
RTVSPropertyOp29
 70
     1
102
RTVSPropertyOp30
 70
     1
102
RTVSPropertyOp31
 70
     1
102
RTVSPropertyOp32
 70
     1
  0
XRECORD
  5
526
102
{ACAD_REACTORS
330
525
102
}
330
525
100
AcDbXrecord
280
     1
102
RTVSPropertyOp0
 70
     1
102
RTVSPropertyOp1
 70
     1
102
RTVSPropertyOp2
 70
     1
102
RTVSPropertyOp3
 70
     1
102
RTVSPropertyOp4
 70
     1
102
RTVSPropertyOp5
 70
     1
102
RTVSPropertyOp6
 70
     1
102
RTVSPropertyOp7
 70
     1
102
RTVSPropertyOp8
 70
     1
102
RTVSPropertyOp9
 70
     1
102
RTVSPropertyOp10
 70
     1
102
RTVSPropertyOp11
 70
     1
102
RTVSPropertyOp12
 70
     1
102
RTVSPropertyOp13
 70
     1
102
RTVSPropertyOp14
 70
     1
102
RTVSPropertyOp15
 70
     1
102
RTVSPropertyOp16
 70
     1
102
RTVSPropertyOp17
 70
     1
102
RTVSPropertyOp18
 70
     1
102
RTVSPropertyOp19
 70
     1
102
RTVSPropertyOp20
 70
     1
102
RTVSPropertyOp21
 70
     1
102
RTVSPropertyOp22
 70
     1
102
RTVSPropertyOp23
 70
     1
102
RTVSPropertyOp24
 70
     1
102
RTVSPropertyOp25
 70
     1
102
RTVSPropertyOp26
 70
     1
102
RTVSPropertyOp27
 70
     1
102
RTVSPropertyOp28
 70
     1
102
RTVSPropertyOp29
 70
     1
102
RTVSPropertyOp30
 70
     1
102
RTVSPropertyOp31
 70
     1
102
RTVSPropertyOp32
 70
     1
  0
XRECORD
  5
52E
102
{ACAD_REACTORS
330
52D
102
}
330
52D
100
AcDbXrecord
280
     1
102
RTVSPropertyOp0
 70
     1
102
RTVSPropertyOp1
 70
     1
102
RTVSPropertyOp2
 70
     1
102
RTVSPropertyOp3
 70
     1
102
RTVSPropertyOp4
 70
     1
102
RTVSPropertyOp5
 70
     1
102
RTVSPropertyOp6
 70
     1
102
RTVSPropertyOp7
 70
     1
102
RTVSPropertyOp8
 70
     1
102
RTVSPropertyOp9
 70
     1
102
RTVSPropertyOp10
 70
     1
102
RTVSPropertyOp11
 70
     1
102
RTVSPropertyOp12
 70
     1
102
RTVSPropertyOp13
 70
     1
102
RTVSPropertyOp14
 70
     1
102
RTVSPropertyOp15
 70
     1
102
RTVSPropertyOp16
 70
     1
102
RTVSPropertyOp17
 70
     1
102
RTVSPropertyOp18
 70
     1
102
RTVSPropertyOp19
 70
     1
102
RTVSPropertyOp20
 70
     1
102
RTVSPropertyOp21
 70
     1
102
RTVSPropertyOp22
 70
     1
102
RTVSPropertyOp23
 70
     1
102
RTVSPropertyOp24
 70
     1
102
RTVSPropertyOp25
 70
     1
102
RTVSPropertyOp26
 70
     1
102
RTVSPropertyOp27
 70
     1
102
RTVSPropertyOp28
 70
     1
102
RTVSPropertyOp29
 70
     1
102
RTVSPropertyOp30
 70
     1
102
RTVSPropertyOp31
 70
     1
102
RTVSPropertyOp32
 70
     1
  0
XRECORD
  5
512
102
{ACAD_REACTORS
330
511
102
}
330
511
100
AcDbXrecord
280
     1
102
RTVSPropertyOp0
 70
     1
102
RTVSPropertyOp1
 70
     1
102
RTVSPropertyOp2
 70
     1
102
RTVSPropertyOp3
 70
     1
102
RTVSPropertyOp4
 70
     1
102
RTVSPropertyOp5
 70
     1
102
RTVSPropertyOp6
 70
     1
102
RTVSPropertyOp7
 70
     1
102
RTVSPropertyOp8
 70
     1
102
RTVSPropertyOp9
 70
     1
102
RTVSPropertyOp10
 70
     1
102
RTVSPropertyOp11
 70
     1
102
RTVSPropertyOp12
 70
     1
102
RTVSPropertyOp13
 70
     1
102
RTVSPropertyOp14
 70
     1
102
RTVSPropertyOp15
 70
     1
102
RTVSPropertyOp16
 70
     1
102
RTVSPropertyOp17
 70
     1
102
RTVSPropertyOp18
 70
     1
102
RTVSPropertyOp19
 70
     1
102
RTVSPropertyOp20
 70
     1
102
RTVSPropertyOp21
 70
     1
102
RTVSPropertyOp22
 70
     1
102
RTVSPropertyOp23
 70
     1
102
RTVSPropertyOp24
 70
     1
102
RTVSPropertyOp25
 70
     1
102
RTVSPropertyOp26
 70
     1
102
RTVSPropertyOp27
 70
     1
102
RTVSPropertyOp28
 70
     1
102
RTVSPropertyOp29
 70
     1
102
RTVSPropertyOp30
 70
     1
102
RTVSPropertyOp31
 70
     1
102
RTVSPropertyOp32
 70
     1
  0
XRECORD
  5
514
102
{ACAD_REACTORS
330
513
102
}
330
513
100
AcDbXrecord
280
     1
102
RTVSPropertyOp0
 70
     1
102
RTVSPropertyOp1
 70
     1
102
RTVSPropertyOp2
 70
     1
102
RTVSPropertyOp3
 70
     1
102
RTVSPropertyOp4
 70
     1
102
RTVSPropertyOp5
 70
     1
102
RTVSPropertyOp6
 70
     1
102
RTVSPropertyOp7
 70
     1
102
RTVSPropertyOp8
 70
     1
102
RTVSPropertyOp9
 70
     1
102
RTVSPropertyOp10
 70
     1
102
RTVSPropertyOp11
 70
     1
102
RTVSPropertyOp12
 70
     1
102
RTVSPropertyOp13
 70
     1
102
RTVSPropertyOp14
 70
     1
102
RTVSPropertyOp15
 70
     1
102
RTVSPropertyOp16
 70
     1
102
RTVSPropertyOp17
 70
     1
102
RTVSPropertyOp18
 70
     1
102
RTVSPropertyOp19
 70
     1
102
RTVSPropertyOp20
 70
     1
102
RTVSPropertyOp21
 70
     1
102
RTVSPropertyOp22
 70
     1
102
RTVSPropertyOp23
 70
     1
102
RTVSPropertyOp24
 70
     1
102
RTVSPropertyOp25
 70
     1
102
RTVSPropertyOp26
 70
     1
102
RTVSPropertyOp27
 70
     1
102
RTVSPropertyOp28
 70
     1
102
RTVSPropertyOp29
 70
     1
102
RTVSPropertyOp30
 70
     1
102
RTVSPropertyOp31
 70
     1
102
RTVSPropertyOp32
 70
     1
  0
XRECORD
  5
516
102
{ACAD_REACTORS
330
515
102
}
330
515
100
AcDbXrecord
280
     1
102
RTVSPropertyOp0
 70
     1
102
RTVSPropertyOp1
 70
     1
102
RTVSPropertyOp2
 70
     1
102
RTVSPropertyOp3
 70
     1
102
RTVSPropertyOp4
 70
     1
102
RTVSPropertyOp5
 70
     1
102
RTVSPropertyOp6
 70
     1
102
RTVSPropertyOp7
 70
     1
102
RTVSPropertyOp8
 70
     1
102
RTVSPropertyOp9
 70
     1
102
RTVSPropertyOp10
 70
     1
102
RTVSPropertyOp11
 70
     1
102
RTVSPropertyOp12
 70
     1
102
RTVSPropertyOp13
 70
     1
102
RTVSPropertyOp14
 70
     1
102
RTVSPropertyOp15
 70
     1
102
RTVSPropertyOp16
 70
     1
102
RTVSPropertyOp17
 70
     1
102
RTVSPropertyOp18
 70
     1
102
RTVSPropertyOp19
 70
     1
102
RTVSPropertyOp20
 70
     1
102
RTVSPropertyOp21
 70
     1
102
RTVSPropertyOp22
 70
     1
102
RTVSPropertyOp23
 70
     1
102
RTVSPropertyOp24
 70
     1
102
RTVSPropertyOp25
 70
     1
102
RTVSPropertyOp26
 70
     1
102
RTVSPropertyOp27
 70
     1
102
RTVSPropertyOp28
 70
     1
102
RTVSPropertyOp29
 70
     1
102
RTVSPropertyOp30
 70
     1
102
RTVSPropertyOp31
 70
     1
102
RTVSPropertyOp32
 70
     1
  0
XRECORD
  5
518
102
{ACAD_REACTORS
330
517
102
}
330
517
100
AcDbXrecord
280
     1
102
RTVSPropertyOp0
 70
     1
102
RTVSPropertyOp1
 70
     1
102
RTVSPropertyOp2
 70
     1
102
RTVSPropertyOp3
 70
     1
102
RTVSPropertyOp4
 70
     1
102
RTVSPropertyOp5
 70
     1
102
RTVSPropertyOp6
 70
     1
102
RTVSPropertyOp7
 70
     1
102
RTVSPropertyOp8
 70
     1
102
RTVSPropertyOp9
 70
     1
102
RTVSPropertyOp10
 70
     1
102
RTVSPropertyOp11
 70
     1
102
RTVSPropertyOp12
 70
     1
102
RTVSPropertyOp13
 70
     1
102
RTVSPropertyOp14
 70
     1
102
RTVSPropertyOp15
 70
     1
102
RTVSPropertyOp16
 70
     1
102
RTVSPropertyOp17
 70
     1
102
RTVSPropertyOp18
 70
     1
102
RTVSPropertyOp19
 70
     1
102
RTVSPropertyOp20
 70
     1
102
RTVSPropertyOp21
 70
     1
102
RTVSPropertyOp22
 70
     1
102
RTVSPropertyOp23
 70
     1
102
RTVSPropertyOp24
 70
     1
102
RTVSPropertyOp25
 70
     1
102
RTVSPropertyOp26
 70
     1
102
RTVSPropertyOp27
 70
     1
102
RTVSPropertyOp28
 70
     1
102
RTVSPropertyOp29
 70
     1
102
RTVSPropertyOp30
 70
     1
102
RTVSPropertyOp31
 70
     1
102
RTVSPropertyOp32
 70
     1
  0
XRECORD
  5
52C
102
{ACAD_REACTORS
330
52B
102
}
330
52B
100
AcDbXrecord
280
     1
102
RTVSPropertyOp0
 70
     1
102
RTVSPropertyOp1
 70
     1
102
RTVSPropertyOp2
 70
     1
102
RTVSPropertyOp3
 70
     1
102
RTVSPropertyOp4
 70
     1
102
RTVSPropertyOp5
 70
     1
102
RTVSPropertyOp6
 70
     1
102
RTVSPropertyOp7
 70
     1
102
RTVSPropertyOp8
 70
     1
102
RTVSPropertyOp9
 70
     1
102
RTVSPropertyOp10
 70
     1
102
RTVSPropertyOp11
 70
     1
102
RTVSPropertyOp12
 70
     1
102
RTVSPropertyOp13
 70
     1
102
RTVSPropertyOp14
 70
     1
102
RTVSPropertyOp15
 70
     1
102
RTVSPropertyOp16
 70
     1
102
RTVSPropertyOp17
 70
     1
102
RTVSPropertyOp18
 70
     1
102
RTVSPropertyOp19
 70
     1
102
RTVSPropertyOp20
 70
     1
102
RTVSPropertyOp21
 70
     1
102
RTVSPropertyOp22
 70
     1
102
RTVSPropertyOp23
 70
     1
102
RTVSPropertyOp24
 70
     1
102
RTVSPropertyOp25
 70
     1
102
RTVSPropertyOp26
 70
     1
102
RTVSPropertyOp27
 70
     1
102
RTVSPropertyOp28
 70
     1
102
RTVSPropertyOp29
 70
     1
102
RTVSPropertyOp30
 70
     1
102
RTVSPropertyOp31
 70
     1
102
RTVSPropertyOp32
 70
     1
  0
XRECORD
  5
522
102
{ACAD_REACTORS
330
521
102
}
330
521
100
AcDbXrecord
280
     1
102
RTVSPropertyOp0
 70
     1
102
RTVSPropertyOp1
 70
     1
102
RTVSPropertyOp2
 70
     1
102
RTVSPropertyOp3
 70
     1
102
RTVSPropertyOp4
 70
     1
102
RTVSPropertyOp5
 70
     1
102
RTVSPropertyOp6
 70
     1
102
RTVSPropertyOp7
 70
     1
102
RTVSPropertyOp8
 70
     1
102
RTVSPropertyOp9
 70
     1
102
RTVSPropertyOp10
 70
     1
102
RTVSPropertyOp11
 70
     1
102
RTVSPropertyOp12
 70
     1
102
RTVSPropertyOp13
 70
     1
102
RTVSPropertyOp14
 70
     1
102
RTVSPropertyOp15
 70
     1
102
RTVSPropertyOp16
 70
     1
102
RTVSPropertyOp17
 70
     1
102
RTVSPropertyOp18
 70
     1
102
RTVSPropertyOp19
 70
     1
102
RTVSPropertyOp20
 70
     1
102
RTVSPropertyOp21
 70
     1
102
RTVSPropertyOp22
 70
     1
102
RTVSPropertyOp23
 70
     1
102
RTVSPropertyOp24
 70
     1
102
RTVSPropertyOp25
 70
     1
102
RTVSPropertyOp26
 70
     1
102
RTVSPropertyOp27
 70
     1
102
RTVSPropertyOp28
 70
     1
102
RTVSPropertyOp29
 70
     1
102
RTVSPropertyOp30
 70
     1
102
RTVSPropertyOp31
 70
     1
102
RTVSPropertyOp32
 70
     1
  0
XRECORD
  5
52A
102
{ACAD_REACTORS
330
529
102
}
330
529
100
AcDbXrecord
280
     1
102
RTVSPropertyOp0
 70
     1
102
RTVSPropertyOp1
 70
     1
102
RTVSPropertyOp2
 70
     1
102
RTVSPropertyOp3
 70
     1
102
RTVSPropertyOp4
 70
     1
102
RTVSPropertyOp5
 70
     1
102
RTVSPropertyOp6
 70
     1
102
RTVSPropertyOp7
 70
     1
102
RTVSPropertyOp8
 70
     1
102
RTVSPropertyOp9
 70
     1
102
RTVSPropertyOp10
 70
     1
102
RTVSPropertyOp11
 70
     1
102
RTVSPropertyOp12
 70
     1
102
RTVSPropertyOp13
 70
     1
102
RTVSPropertyOp14
 70
     1
102
RTVSPropertyOp15
 70
     1
102
RTVSPropertyOp16
 70
     1
102
RTVSPropertyOp17
 70
     1
102
RTVSPropertyOp18
 70
     1
102
RTVSPropertyOp19
 70
     1
102
RTVSPropertyOp20
 70
     1
102
RTVSPropertyOp21
 70
     1
102
RTVSPropertyOp22
 70
     1
102
RTVSPropertyOp23
 70
     1
102
RTVSPropertyOp24
 70
     1
102
RTVSPropertyOp25
 70
     1
102
RTVSPropertyOp26
 70
     1
102
RTVSPropertyOp27
 70
     1
102
RTVSPropertyOp28
 70
     1
102
RTVSPropertyOp29
 70
     1
102
RTVSPropertyOp30
 70
     1
102
RTVSPropertyOp31
 70
     1
102
RTVSPropertyOp32
 70
     1
  0
ENDSEC
  0
EOF
